<svg xmlns="http://www.w3.org/2000/svg" width="1202.2509765625" height="1220.68798828125" viewBox="-619.3845825195312 -607.8344116210938 1202.2509765625 1220.68798828125"><title>Neo4j Graph Visualization</title><desc>Created using Neo4j (http://www.neo4j.com/)</desc><g class="layer relationships"><g class="relationship" transform="translate(17.8290638581364 583.8535191378053) rotate(350.7481408721585)"><path class="b-outline" fill="#A5ABB6" stroke="none" d="M 24.018736134675446,6.953439040707552 L 24.277555179777966,5.987513214418485 A 178.7920673307981 178.7920673307981 0 0 0 39.62762221947501,9.38495388823074 L 39.45465747019701,10.36988190362436 A 179.7920673307981 179.7920673307981 0 0 1 24.018736134675446,6.953439040707552 Z M 97.38213653988113,11.066573281806626 L 97.23290977131477,10.077770282446664 A 178.7920673307981 178.7920673307981 0 0 0 112.66024668445282,7.050488164144462 L 111.95370695937143,4.1348747438018565 L 119.58110128609913,5.887831042344975 L 113.60229965122801,10.93797272460127 L 112.89575992614662,8.022359304258664 A 179.7920673307981 179.7920673307981 0 0 1 97.38213653988113,11.066573281806626"/><text text-anchor="middle" pointer-events="none" font-size="8px" fill="#000000" x="68.39616502948208" y="15.56673948633943" font-family="Helvetica Neue, Helvetica, Arial, sans-serif">Winning_Entry</text></g><g class="relationship" transform="translate(-199.85635515251448 124.8948868810997) rotate(453.6656628869447)"><path class="b-outline" fill="#A5ABB6" stroke="none" d="M 24.018736134675446,6.953439040707552 L 24.277555179777966,5.987513214418485 A 192.88596013709022 192.88596013709022 0 0 0 43.18422772571162,10.049948558306085 L 43.023428632566706,11.03693571710997 A 193.88596013709022 193.88596013709022 0 0 1 24.018736134675446,6.953439040707552 Z M 100.97510408520779,11.702276299202538 L 100.8370075006478,10.711857532552358 A 192.88596013709022 192.88596013709022 0 0 0 119.83196541969932,7.084569105106239 L 119.12224268729632,4.169728861952178 L 126.75154644245929,5.9143561033582674 L 120.77826239623663,10.971022762644989 L 120.06853966383363,8.056182519490926 A 193.88596013709022 193.88596013709022 0 0 1 100.97510408520779,11.702276299202538"/><text text-anchor="middle" pointer-events="none" font-size="8px" fill="#000000" x="71.98000599073605" y="16.047198859453317" transform="rotate(180 71.98000599073605 13.047198859453317)" font-family="Helvetica Neue, Helvetica, Arial, sans-serif">Winning_Entry</text></g><g class="relationship" transform="translate(79.97829183854402 92.94709858898267) rotate(443.8840908599988)"><path class="b-outline" fill="#A5ABB6" stroke="none" d="M 24.018736134675446,6.953439040707552 L 24.277555179777966,5.987513214418485 A 193.6389402418583 193.6389402418583 0 0 0 43.37455856621749,10.084754812831193 L 43.21436123099721,11.071839821221232 A 194.6389402418583 194.6389402418583 0 0 1 24.018736134675446,6.953439040707552 Z M 101.16716098748292,11.735581991302553 L 101.02961317630815,10.745086862772894 A 193.6389402418583 193.6389402418583 0 0 0 120.21544747810475,7.086304387488546 L 119.50556267962826,4.171503609923812 L 127.13496342550188,5.915706653970832 L 121.16196054274009,10.972705424241525 L 120.4520757442636,8.057904646676791 A 194.6389402418583 194.6389402418583 0 0 1 101.16716098748292,11.735581991302553"/><text text-anchor="middle" pointer-events="none" font-size="8px" fill="#000000" x="72.17164399748225" y="16.072868298336658" font-family="Helvetica Neue, Helvetica, Arial, sans-serif">Winning_Entry</text></g><g class="relationship" transform="translate(-199.85635515251448 124.8948868810997) rotate(414.9340780749205)"><path class="b-outline" fill="#A5ABB6" stroke="none" d="M 24.018736134675446,6.953439040707552 L 24.277555179777966,5.987513214418485 A 190.521150503465 190.521150503465 0 0 0 42.58667110757166,9.94018825120179 L 42.42395223759096,10.92686072439247 A 191.521150503465 191.521150503465 0 0 1 24.018736134675446,6.953439040707552 Z M 100.37199530155486,11.597270019877215 L 100.23214684196579,10.607097101468241 A 190.521150503465 190.521150503465 0 0 0 118.62780815377478,7.0790649438753 L 117.91859948151185,4.164099582299446 L 125.54759544282892,5.910072268857764 L 119.57341971679202,10.965685425976439 L 118.86421104452909,8.050720064400585 A 191.521150503465 191.521150503465 0 0 1 100.37199530155486,11.597270019877215"/><text text-anchor="middle" pointer-events="none" font-size="8px" fill="#000000" x="71.37825397408147" y="15.966581652034847" font-family="Helvetica Neue, Helvetica, Arial, sans-serif">Winning_Entry</text></g><g class="relationship" transform="translate(79.97829183854402 92.94709858898267) rotate(405.63640970870813)"><path class="b-outline" fill="#A5ABB6" stroke="none" d="M 24.018736134675446,6.953439040707552 L 24.277555179777966,5.987513214418485 A 196.5751833177276 196.5751833177276 0 0 0 44.117033570130985,10.219843331394344 L 43.959140176250095,11.20729949557014 A 197.5751833177276 197.5751833177276 0 0 1 24.018736134675446,6.953439040707552 Z M 101.91618165743375,11.864879017055898 L 101.78073334458836,10.874094603297124 A 196.5751833177276 196.5751833177276 0 0 0 121.71113198567598,7.092992776094717 L 121.00062252894305,4.178344201756278 L 128.63039690192116,5.920912139440983 L 122.65847792798654,10.979190875212636 L 121.94796847125362,8.064542300874196 A 197.5751833177276 197.5751833177276 0 0 1 101.91618165743375,11.864879017055898"/><text text-anchor="middle" pointer-events="none" font-size="8px" fill="#000000" x="72.91908893776659" y="16.17296651067977" font-family="Helvetica Neue, Helvetica, Arial, sans-serif">Winning_Entry</text></g><g class="relationship" transform="translate(419.1286771560277 6.616712579419855) rotate(423.06588247712705)"><path class="b-outline" fill="#A5ABB6" stroke="none" d="M 24.018736134675446,6.953439040707552 L 24.277555179777966,5.987513214418485 A 180.46318247533245 180.46318247533245 0 0 0 40.04870425023482,9.465236775255107 L 39.87727781815248,10.450433698912263 A 181.46318247533245 181.46318247533245 0 0 1 24.018736134675446,6.953439040707552 Z M 97.80797140806412,11.143260046330653 L 97.66015570628944,10.154245123132398 A 180.46318247533245 180.46318247533245 0 0 0 113.50996616343512,7.054694729813119 L 112.80303356085217,4.13917654338291 L 120.43066403220277,5.8911050215245995 L 114.45254296687905,10.942052311720065 L 113.7456103642961,8.026534125289855 A 181.46318247533245 181.46318247533245 0 0 1 97.80797140806412,11.143260046330653"/><text text-anchor="middle" pointer-events="none" font-size="8px" fill="#000000" x="68.82077614972222" y="15.623706723644602" font-family="Helvetica Neue, Helvetica, Arial, sans-serif">Winning_Entry</text></g><g class="relationship" transform="translate(79.97829183854402 92.94709858898267) rotate(366.8102610904115)"><path class="b-outline" fill="#A5ABB6" stroke="none" d="M 24.018736134675446,6.953439040707552 L 24.277555179777966,5.987513214418485 A 184.4522396484247 184.4522396484247 0 0 0 41.05456213771454,9.655248378946084 L 40.886698924809636,10.641058675987694 A 185.4522396484247 185.4522396484247 0 0 1 24.018736134675446,6.953439040707552 Z M 98.82466563287979,11.324823678280382 L 98.68011435665312,10.335326367247546 A 184.4522396484247 184.4522396484247 0 0 0 115.53900735320072,7.064551132732307 L 114.83115420286407,4.14925630758023 L 122.45933747027834,5.898776252805465 L 116.48281155364958,10.951610899601743 L 115.77495840331294,8.036316074449665 A 185.4522396484247 185.4522396484247 0 0 1 98.82466563287979,11.324823678280382"/><text text-anchor="middle" pointer-events="none" font-size="8px" fill="#000000" x="69.83471364244468" y="15.759692186011222" font-family="Helvetica Neue, Helvetica, Arial, sans-serif">Winning_Entry</text></g><g class="relationship" transform="translate(528.7859520458074 -282.74104377716816) rotate(203.69176076901545)"><path class="b-outline" fill="#A5ABB6" stroke="none" d="M 24.018736134675446,6.953439040707552 L 24.277555179777966,5.987513214418485 A 175.83939160574877 175.83939160574877 0 0 0 38.88406453085263,9.24207169494602 L 38.708312819057454,10.226506220854702 A 176.83939160574877 176.83939160574877 0 0 1 24.018736134675446,6.953439040707552 Z M 96.62985331820481,10.930128878538511 L 96.47806748322829,9.941715472973584 A 175.83939160574877 175.83939160574877 0 0 0 111.15932665441076,7.042940649919077 L 110.45349184111846,4.127156498726704 L 118.08046214274168,5.881956777435788 L 112.10043973880049,10.93065285150891 L 111.39460492550819,8.014868700316535 A 176.83939160574877 176.83939160574877 0 0 1 96.62985331820481,10.930128878538511"/><text text-anchor="middle" pointer-events="none" font-size="8px" fill="#000000" x="67.64615073273079" y="15.466085386742321" transform="rotate(180 67.64615073273079 12.466085386742321)" font-family="Helvetica Neue, Helvetica, Arial, sans-serif">Winning_Entry</text></g><g class="relationship" transform="translate(316.7549158962567 -492.82369118972116) rotate(207.3441766380842)"><path class="b-outline" fill="#A5ABB6" stroke="none" d="M 24.018736134675446,-6.953439040707552 L 24.277555179777966,-5.987513214418485 A 174.41906161203448 174.41906161203448 0 0 1 38.52660005907159,-9.172856088836284 L 38.34947532391203,-10.157044499759024 A 175.41906161203448 175.41906161203448 0 0 0 24.018736134675446,-6.953439040707552 Z M 96.26803560955659,-10.864048664277874 L 96.1149877867661,-9.875829880840172 A 174.41906161203448 174.41906161203448 0 0 1 110.43754139454333,-7.039256710256443 L 109.7320506495255,-4.123389290654824 L 117.35881383111673,-5.879089541815141 L 111.37819572123375,-10.927079936391936 L 110.67270497621593,-8.011212516790316 A 175.41906161203448 175.41906161203448 0 0 0 96.26803560955659,-10.864048664277874"/><text text-anchor="middle" pointer-events="none" font-size="8px" fill="#000000" x="67.28547548989582" y="-9.41766793948159" transform="rotate(180 67.28547548989582 -12.41766793948159)" font-family="Helvetica Neue, Helvetica, Arial, sans-serif">Winning_Entry</text></g><g class="relationship" transform="translate(419.1286771560277 6.616712579419855) rotate(340.6315224582804)"><path class="b-outline" fill="#A5ABB6" stroke="none" d="M 24.018736134675446,-6.953439040707552 L 24.277555179777966,-5.987513214418485 A 176.71009057764945 176.71009057764945 0 0 1 39.103267725402254,-9.284345191871068 L 38.92834718602264,-10.268927745496285 A 177.71009057764945 177.71009057764945 0 0 0 24.018736134675446,-6.953439040707552 Z M 96.8516742855553,-10.970492752011523 L 96.70065201036962,-9.981962392134932 A 176.71009057764945 176.71009057764945 0 0 1 111.6018658211471,-7.045181750253437 L 110.8958216965224,-4.12944827579406 L 118.52291794898976,-5.88370103853906 L 112.54325798731335,-10.93282638286594 L 111.83721386268866,-8.017092908406562 A 177.71009057764945 177.71009057764945 0 0 0 96.8516742855553,-10.970492752011523"/><text text-anchor="middle" pointer-events="none" font-size="8px" fill="#000000" x="67.86728801622279" y="-9.495766645239627" font-family="Helvetica Neue, Helvetica, Arial, sans-serif">Winning_Entry</text></g><g class="relationship" transform="translate(2.5280394770849157 -528.2010699127833) rotate(200.81640859240133)"><path class="b-outline" fill="#A5ABB6" stroke="none" d="M 24.018736134675446,6.953439040707552 L 24.277555179777966,5.987513214418485 A 176.0367198330946 176.0367198330946 0 0 0 38.933738476770316,9.251662616659075 L 38.75817583016743,10.236130877761354 A 177.0367198330946 177.0367198330946 0 0 1 24.018736134675446,6.953439040707552 Z M 96.68012388283445,10.939286191705037 L 96.52851175966487,9.95084612568786 A 176.0367198330946 176.0367198330946 0 0 0 111.25961579726683,7.0434496978624805 L 110.55373344056456,4.12767705609213 L 118.18073235418136,5.882352972518908 L 112.20079227286986,10.931146553556282 L 111.49490991616759,8.01537391178593 A 177.0367198330946 177.0367198330946 0 0 1 96.68012388283445,10.939286191705037"/><text text-anchor="middle" pointer-events="none" font-size="8px" fill="#000000" x="67.69626525688156" y="15.472812101576693" transform="rotate(180 67.69626525688156 12.472812101576693)" font-family="Helvetica Neue, Helvetica, Arial, sans-serif">Winning_Entry</text></g><g class="relationship" transform="translate(-83.84166335040268 -173.5946714366416) rotate(256.44070917110923)"><path class="b-outline" fill="#A5ABB6" stroke="none" d="M 24.018736134675446,6.953439040707552 L 24.277555179777966,5.987513214418485 A 185.78588848151958 185.78588848151958 0 0 0 41.391062465857196,9.718280868255249 L 41.22435756045577,10.70428770114998 A 186.78588848151958 186.78588848151958 0 0 1 24.018736134675446,6.953439040707552 Z M 99.16463671647708,11.385073974712299 L 99.02114538796036,10.395422400348622 A 185.78588848151958 185.78588848151958 0 0 0 116.2175874174089,7.0677895411809795 L 115.50943181400282,4.1525681702788315 L 123.13779655008157,5.901296695050524 L 117.16179488861698,10.95475136905051 L 116.45363928521091,8.039529998148362 A 186.78588848151958 186.78588848151958 0 0 1 99.16463671647708,11.385073974712299"/><text text-anchor="middle" pointer-events="none" font-size="8px" fill="#000000" x="70.17381191907931" y="15.805156088733753" transform="rotate(180 70.17381191907931 12.805156088733753)" font-family="Helvetica Neue, Helvetica, Arial, sans-serif">Winning_Entry</text></g><g class="relationship" transform="translate(-215.4758831537059 -88.3149185242994) rotate(241.08910398915134)"><path class="b-outline" fill="#A5ABB6" stroke="none" d="M 24.018736134675446,6.953439040707552 L 24.277555179777966,5.987513214418485 A 186.83274307953445 186.83274307953445 0 0 0 41.65527328622517,9.767590994352247 L 41.489466407084635,10.753749236638782 A 187.83274307953445 187.83274307953445 0 0 1 24.018736134675446,6.953439040707552 Z M 99.43152091156766,11.432214813910832 L 99.28885093223018,10.442444498637713 A 186.83274307953445 186.83274307953445 0 0 0 116.7503169920953,7.07031199091131 L 116.0419258033655,4.155147857671131 L 123.67043183444403,5.903259906081779 L 117.6948385770684,10.957197501898214 L 116.98644738833859,8.042033368658036 A 187.83274307953445 187.83274307953445 0 0 1 99.43152091156766,11.432214813910832"/><text text-anchor="middle" pointer-events="none" font-size="8px" fill="#000000" x="70.44002728595069" y="15.840843318985947" transform="rotate(180 70.44002728595069 12.840843318985947)" font-family="Helvetica Neue, Helvetica, Arial, sans-serif">Winning_Entry</text></g><g class="relationship" transform="translate(-215.4758831537059 -88.3149185242994) rotate(391.039505945219)"><path class="b-outline" fill="#A5ABB6" stroke="none" d="M 24.018736134675446,6.953439040707552 L 24.277555179777966,5.987513214418485 A 208.28018432153823 208.28018432153823 0 0 0 47.08096716781542,10.748980035618871 L 46.93163243137298,11.737766734807138 A 209.28018432153823 209.28018432153823 0 0 1 24.018736134675446,6.953439040707552 Z M 104.90356122307944,12.371844331861723 L 104.7758896630125,11.380027830310127 A 208.28018432153823 208.28018432153823 0 0 0 127.67799245223436,7.118472666115969 L 126.96510333586737,4.204405215323952 L 134.59629802347692,5.940742636391647 L 128.62851127405702,11.003895933838658 L 127.91562215769004,8.089828483046642 A 209.28018432153823 209.28018432153823 0 0 1 104.90356122307944,12.371844331861723"/><text text-anchor="middle" pointer-events="none" font-size="8px" fill="#000000" x="75.90100224918578" y="16.572001064224082" font-family="Helvetica Neue, Helvetica, Arial, sans-serif">Winning_Entry</text></g><g class="relationship" transform="translate(-83.84166335040268 -173.5946714366416) rotate(448.4596383369309)"><path class="b-outline" fill="#A5ABB6" stroke="none" d="M 24.018736134675446,6.953439040707552 L 24.277555179777966,5.987513214418485 A 224.71850600937015 224.71850600937015 0 0 0 51.25324411574991,11.470159918249237 L 51.114467204315034,12.46048358698215 A 225.71850600937015 225.71850600937015 0 0 1 24.018736134675446,6.953439040707552 Z M 109.10288634331302,13.064187688899267 L 108.98475734054432,12.07118943174828 A 224.71850600937015 224.71850600937015 0 0 0 136.0687442144165,7.1513455861310815 L 135.35278502380774,4.238030903954986 L 142.98580500459553,5.96632658840659 L 137.02335646856156,11.035765162365877 L 136.3073972779528,8.12245048018978 A 225.71850600937015 225.71850600937015 0 0 1 109.10288634331302,13.064187688899267"/><text text-anchor="middle" pointer-events="none" font-size="8px" fill="#000000" x="80.09441328038304" y="17.1324065598306" font-family="Helvetica Neue, Helvetica, Arial, sans-serif">Winning_Entry</text></g><g class="relationship" transform="translate(-199.85635515251448 124.8948868810997) rotate(312.54952783425887)"><path class="b-outline" fill="#A5ABB6" stroke="none" d="M 24.018736134675446,6.953439040707552 L 24.277555179777966,5.987513214418485 A 246.15006383896358 246.15006383896358 0 0 0 56.70689865089716,12.379431064262803 L 56.57982583801311,13.371324455825487 A 247.15006383896358 247.15006383896358 0 0 1 24.018736134675446,6.953439040707552 Z M 114.58413156663833,13.939454986236683 L 114.47651172022199,12.94526286765128 A 246.15006383896358 246.15006383896358 0 0 0 147.0248344778527,7.189777012220186 L 146.30528615961248,4.277346718167182 L 153.9404298836831,5.996235985335173 L 147.98423223550634,11.073017404290859 L 147.26468391726613,8.160587110237854 A 247.15006383896358 247.15006383896358 0 0 1 114.58413156663833,13.939454986236683"/><text text-anchor="middle" pointer-events="none" font-size="8px" fill="#000000" x="85.57015018960105" y="17.863042948009763" font-family="Helvetica Neue, Helvetica, Arial, sans-serif">Winning_Entry</text></g><g class="relationship" transform="translate(79.97829183854402 92.94709858898267) rotate(211.94365440681815)"><path class="b-outline" fill="#A5ABB6" stroke="none" d="M 24.018736134675446,6.953439040707552 L 24.277555179777966,5.987513214418485 A 264.809716074427 264.809716074427 0 0 0 61.46563853852414,13.148456803708882 L 61.34725272189234,14.141424476103339 A 265.809716074427 265.809716074427 0 0 1 24.018736134675446,6.953439040707552 Z M 119.36173965100747,14.681771198405556 L 119.26186976282195,13.686770693162543 A 264.809716074427 264.809716074427 0 0 0 156.57688394404823,7.219748686015504 L 155.85453660882322,4.308011347708126 L 163.49132895596964,6.0195611268750575 L 157.54001372434826,11.102065137092008 L 156.81766638912325,8.19032779878463 A 265.809716074427 265.809716074427 0 0 1 119.36173965100747,14.681771198405556"/><text text-anchor="middle" pointer-events="none" font-size="8px" fill="#000000" x="90.34436646547266" y="18.499178349866156" transform="rotate(180 90.34436646547266 15.499178349866156)" font-family="Helvetica Neue, Helvetica, Arial, sans-serif">Winning_Entry</text></g><g class="relationship" transform="translate(-510.5552268894273 -299.0637486631614) rotate(439.3393650199216)"><path class="b-outline" fill="#A5ABB6" stroke="none" d="M 24.018736134675446,6.953439040707552 L 24.277555179777966,5.987513214418485 A 176.09822409983605 176.09822409983605 0 0 0 38.94922164687766,9.254650714349623 L 38.77371784553808,10.239129467657847 A 177.09822409983605 177.09822409983605 0 0 1 24.018736134675446,6.953439040707552 Z M 96.6957926071861,10.9421392392548 L 96.54423454748186,9.953690882212982 A 176.09822409983605 176.09822409983605 0 0 0 111.29087495415178,7.043608223310985 L 110.58497779169464,4.127839165920641 L 118.21198561513876,5.88247635380941 L 112.23207117076127,10.931300299831443 L 111.52617400830414,8.0155312424411 A 177.09822409983605 177.09822409983605 0 0 1 96.6957926071861,10.9421392392548"/><text text-anchor="middle" pointer-events="none" font-size="8px" fill="#000000" x="67.71188547770514" y="15.47490871920104" font-family="Helvetica Neue, Helvetica, Arial, sans-serif">Winning_Entry</text></g><g class="relationship" transform="translate(-590.384564888394 1.528871689559147) rotate(441.5171503427273)"><path class="b-outline" fill="#A5ABB6" stroke="none" d="M 24.018736134675446,6.953439040707552 L 24.277555179777966,5.987513214418485 A 175.57560628959203 175.57560628959203 0 0 0 38.817665320098,9.229241124032 L 38.64166022875361,10.213630380282211 A 176.57560628959203 176.57560628959203 0 0 1 24.018736134675446,6.953439040707552 Z M 96.56265346615307,10.917878707400376 L 96.41063480351184,9.929501084116254 A 175.57560628959203 175.57560628959203 0 0 0 111.02526570987283,7.042259112365283 L 110.31949454997495,4.126459553092321 L 117.94642654149273,5.8814263324823814 L 111.96629392307001,10.929991858062566 L 111.26052276317213,8.014192298789604 A 176.57560628959203 176.57560628959203 0 0 1 96.56265346615307,10.917878707400376"/><text text-anchor="middle" pointer-events="none" font-size="8px" fill="#000000" x="67.57916048589108" y="15.457093225442748" font-family="Helvetica Neue, Helvetica, Arial, sans-serif">Winning_Entry</text></g><g class="relationship" transform="translate(419.1286771560277 6.616712579419855) rotate(252.75289949113545)"><path class="b-outline" fill="#A5ABB6" stroke="none" d="M 24.018736134675446,6.953439040707552 L 24.277555179777966,5.987513214418485 A 183.32943146763353 183.32943146763353 0 0 0 40.77134254204669,9.601992033974625 L 40.60249152461015,10.587633618888049 A 184.32943146763353 184.32943146763353 0 0 1 24.018736134675446,6.953439040707552 Z M 98.5384660969315,11.273925973354693 L 98.39301041841051,10.28456120463386 A 183.32943146763353 183.32943146763353 0 0 0 114.96778966287496,7.061802807542424 L 114.2601931943981,4.146445670277922 L 121.88822239457161,5.896637237307166 L 115.91125162084411,10.948945657228426 L 115.20365515236725,8.033588519963924 A 184.32943146763353 184.32943146763353 0 0 1 98.5384660969315,11.273925973354693"/><text text-anchor="middle" pointer-events="none" font-size="8px" fill="#000000" x="69.54926746674018" y="15.72141593013319" transform="rotate(180 69.54926746674018 12.72141593013319)" font-family="Helvetica Neue, Helvetica, Arial, sans-serif">Winning_Entry</text></g><g class="relationship" transform="translate(419.1286771560277 6.616712579419855) rotate(202.402801003979)"><path class="b-outline" fill="#A5ABB6" stroke="none" d="M 24.018736134675446,6.953439040707552 L 24.277555179777966,5.987513214418485 A 180.5971945753576 180.5971945753576 0 0 0 40.0824799133041,9.471657109787344 L 39.91117565363713,10.45687528390917 A 181.5971945753576 181.5971945753576 0 0 1 24.018736134675446,6.953439040707552 Z M 97.8421226095175,11.149393467274336 L 97.69441892915904,10.160361808120513 A 180.5971945753576 180.5971945753576 0 0 0 113.57811557891443,7.055030061816132 L 112.87115165761405,4.1395194694876505 L 120.49880094789762,5.891366010836628 L 114.52073414064829,10.942377518254107 L 113.8137702193479,8.026866925925626 A 181.5971945753576 181.5971945753576 0 0 1 97.8421226095175,11.149393467274336"/><text text-anchor="middle" pointer-events="none" font-size="8px" fill="#000000" x="68.85483103226616" y="15.628275121687693" transform="rotate(180 68.85483103226616 12.628275121687693)" font-family="Helvetica Neue, Helvetica, Arial, sans-serif">Winning_Entry</text></g><g class="relationship" transform="translate(-412.4629307308767 453.5736759324086) rotate(254.54270015430592)"><path class="b-outline" fill="#A5ABB6" stroke="none" d="M 24.018736134675446,6.953439040707552 L 24.277555179777966,5.987513214418485 A 177.10992497952918 177.10992497952918 0 0 0 39.20394534156931,9.303718127273441 L 39.02940384422995,10.288367946095633 A 178.10992497952918 178.10992497952918 0 0 1 24.018736134675446,6.953439040707552 Z M 96.95354131475727,10.988991921868575 L 96.80286714835873,10.000408442550764 A 177.10992497952918 177.10992497952918 0 0 0 111.80510129418128,7.0462065334088075 L 111.09896145829393,4.130496237070544 L 118.72611529161847,5.884498632394676 L 112.74662107536443,10.933820261859827 L 112.04048123947707,8.018109965521562 A 178.10992497952918 178.10992497952918 0 0 1 96.95354131475727,10.988991921868575"/><text text-anchor="middle" pointer-events="none" font-size="8px" fill="#000000" x="67.9688452426799" y="15.509396628686488" transform="rotate(180 67.9688452426799 12.509396628686488)" font-family="Helvetica Neue, Helvetica, Arial, sans-serif">Winning_Entry</text></g><g class="relationship" transform="translate(-199.85635515251448 124.8948868810997) rotate(493.98904259740704)"><path class="b-outline" fill="#A5ABB6" stroke="none" d="M 24.018736134675446,6.953439040707552 L 24.277555179777966,5.987513214418485 A 182.72343759197202 182.72343759197202 0 0 0 40.618517082371966,9.57317601439911 L 40.4491280639696,10.558725282799571 A 183.72343759197202 183.72343759197202 0 0 1 24.018736134675446,6.953439040707552 Z M 98.38400985051607,11.246389171157517 L 98.2380614109115,10.25709697318112 A 182.72343759197202 182.72343759197202 0 0 0 114.65952826801586,7.060311106374353 L 113.95207111822667,4.144920158111644 L 121.58001667226038,5.895476248243341 L 115.6028044677348,10.9474990373913 L 114.8953473179456,8.03210808912859 A 183.72343759197202 183.72343759197202 0 0 1 98.38400985051607,11.246389171157517"/><text text-anchor="middle" pointer-events="none" font-size="8px" fill="#000000" x="69.39522503531353" y="15.700757793810794" transform="rotate(180 69.39522503531353 12.700757793810794)" font-family="Helvetica Neue, Helvetica, Arial, sans-serif">Winning_Entry</text></g><g class="relationship" transform="translate(-83.84166335040268 -173.5946714366416) rotate(346.5823439925615)"><path class="b-outline" fill="#A5ABB6" stroke="none" d="M 24.018736134675446,6.953439040707552 L 24.277555179777966,5.987513214418485 A 177.94635836297203 177.94635836297203 0 0 0 39.41459232756169,9.344165817921635 L 39.24083845202509,10.328954927698959 A 178.94635836297203 178.94635836297203 0 0 1 24.018736134675446,6.953439040707552 Z M 97.16665105135216,11.027618132399027 L 97.01670002934718,10.038924706204796 A 177.94635836297203 177.94635836297203 0 0 0 112.23029337712501,7.048341525212345 L 111.52395414042799,4.132679527877558 L 119.15122791035569,5.886160305808445 L 113.17207902605436,10.935890854992062 L 112.46573978935734,8.020228857657274 A 178.94635836297203 178.94635836297203 0 0 1 97.16665105135216,11.027618132399027"/><text text-anchor="middle" pointer-events="none" font-size="8px" fill="#000000" x="68.18131519256782" y="15.537909921658922" font-family="Helvetica Neue, Helvetica, Arial, sans-serif">Winning_Entry</text></g><g class="relationship" transform="translate(79.97829183854402 92.94709858898267) rotate(507.92753275463235)"><path class="b-outline" fill="#A5ABB6" stroke="none" d="M 24.018736134675446,6.953439040707552 L 24.277555179777966,5.987513214418485 A 171.26813839400847 171.26813839400847 0 0 0 37.73409219506619,9.018133440326181 L 37.55384314635337,10.001754444797967 A 172.26813839400847 172.26813839400847 0 0 1 24.018736134675446,6.953439040707552 Z M 95.46548749964654,10.716372593732018 L 95.309565014301,9.72860329953238 A 171.26813839400847 171.26813839400847 0 0 0 108.83678769323078,7.03095729011089 L 108.13207209016967,4.114902434865156 L 115.75836828931435,5.872630025509252 L 109.77640849731226,10.919030430438534 L 109.07169289425116,8.002975575192801 A 172.26813839400847 172.26813839400847 0 0 1 95.46548749964654,10.716372593732018"/><text text-anchor="middle" pointer-events="none" font-size="8px" fill="#000000" x="66.48558797964148" y="15.310257380809531" transform="rotate(180 66.48558797964148 12.310257380809531)" font-family="Helvetica Neue, Helvetica, Arial, sans-serif">Winning_Entry</text></g><g class="relationship" transform="translate(159.83525793111718 560.7216117916374) rotate(530.7481408721585)"><path class="b-outline" fill="#A5ABB6" stroke="none" d="M 24.018736134675446,6.953439040707552 L 24.277555179777966,5.987513214418485 A 178.7920673307981 178.7920673307981 0 0 0 39.62762221947501,9.38495388823074 L 39.45465747019701,10.36988190362436 A 179.7920673307981 179.7920673307981 0 0 1 24.018736134675446,6.953439040707552 Z M 97.38213653988113,11.066573281806626 L 97.23290977131477,10.077770282446664 A 178.7920673307981 178.7920673307981 0 0 0 112.66024668445282,7.050488164144462 L 111.95370695937143,4.1348747438018565 L 119.58110128609913,5.887831042344975 L 113.60229965122801,10.93797272460127 L 112.89575992614662,8.022359304258664 A 179.7920673307981 179.7920673307981 0 0 1 97.38213653988113,11.066573281806626"/><text text-anchor="middle" pointer-events="none" font-size="8px" fill="#000000" x="68.39616502948208" y="15.56673948633943" transform="rotate(180 68.39616502948208 12.56673948633943)" font-family="Helvetica Neue, Helvetica, Arial, sans-serif">Winning_Entry</text></g><g class="relationship" transform="translate(-209.51310461171616 275.62775406073854) rotate(273.6656628869447)"><path class="b-outline" fill="#A5ABB6" stroke="none" d="M 24.018736134675446,6.953439040707552 L 24.277555179777966,5.987513214418485 A 192.88596013709022 192.88596013709022 0 0 0 43.18422772571162,10.049948558306085 L 43.023428632566706,11.03693571710997 A 193.88596013709022 193.88596013709022 0 0 1 24.018736134675446,6.953439040707552 Z M 100.97510408520779,11.702276299202538 L 100.8370075006478,10.711857532552358 A 192.88596013709022 192.88596013709022 0 0 0 119.83196541969932,7.084569105106239 L 119.12224268729632,4.169728861952178 L 126.75154644245929,5.9143561033582674 L 120.77826239623663,10.971022762644989 L 120.06853966383363,8.056182519490926 A 193.88596013709022 193.88596013709022 0 0 1 100.97510408520779,11.702276299202538"/><text text-anchor="middle" pointer-events="none" font-size="8px" fill="#000000" x="71.98000599073605" y="16.047198859453317" font-family="Helvetica Neue, Helvetica, Arial, sans-serif">Winning_Entry</text></g><g class="relationship" transform="translate(-301.16953447263217 229.84791531834313) rotate(313.98904259740704)"><path class="b-outline" fill="#A5ABB6" stroke="none" d="M 24.018736134675446,6.953439040707552 L 24.277555179777966,5.987513214418485 A 182.72343759197202 182.72343759197202 0 0 0 40.618517082371966,9.57317601439911 L 40.4491280639696,10.558725282799571 A 183.72343759197202 183.72343759197202 0 0 1 24.018736134675446,6.953439040707552 Z M 98.38400985051607,11.246389171157517 L 98.2380614109115,10.25709697318112 A 182.72343759197202 182.72343759197202 0 0 0 114.65952826801586,7.060311106374353 L 113.95207111822667,4.144920158111644 L 121.58001667226038,5.895476248243341 L 115.6028044677348,10.9474990373913 L 114.8953473179456,8.03210808912859 A 183.72343759197202 183.72343759197202 0 0 1 98.38400985051607,11.246389171157517"/><text text-anchor="middle" pointer-events="none" font-size="8px" fill="#000000" x="69.39522503531353" y="15.700757793810794" font-family="Helvetica Neue, Helvetica, Arial, sans-serif">Winning_Entry</text></g><g class="relationship" transform="translate(-113.77108753378779 247.5368236945257) rotate(234.93407807492048)"><path class="b-outline" fill="#A5ABB6" stroke="none" d="M 24.018736134675446,6.953439040707552 L 24.277555179777966,5.987513214418485 A 190.521150503465 190.521150503465 0 0 0 42.58667110757166,9.94018825120179 L 42.42395223759096,10.92686072439247 A 191.521150503465 191.521150503465 0 0 1 24.018736134675446,6.953439040707552 Z M 100.37199530155486,11.597270019877215 L 100.23214684196579,10.607097101468241 A 190.521150503465 190.521150503465 0 0 0 118.62780815377478,7.0790649438753 L 117.91859948151185,4.164099582299446 L 125.54759544282892,5.910072268857764 L 119.57341971679202,10.965685425976439 L 118.86421104452909,8.050720064400585 A 191.521150503465 191.521150503465 0 0 1 100.37199530155486,11.597270019877215"/><text text-anchor="middle" pointer-events="none" font-size="8px" fill="#000000" x="71.37825397408147" y="15.966581652034847" transform="rotate(180 71.37825397408147 12.966581652034847)" font-family="Helvetica Neue, Helvetica, Arial, sans-serif">Winning_Entry</text></g><g class="relationship" transform="translate(-79.34543102831671 -6.391686936355787) rotate(492.54952783425887)"><path class="b-outline" fill="#A5ABB6" stroke="none" d="M 24.018736134675446,6.953439040707552 L 24.277555179777966,5.987513214418485 A 246.15006383896358 246.15006383896358 0 0 0 56.70689865089716,12.379431064262803 L 56.57982583801311,13.371324455825487 A 247.15006383896358 247.15006383896358 0 0 1 24.018736134675446,6.953439040707552 Z M 114.58413156663833,13.939454986236683 L 114.47651172022199,12.94526286765128 A 246.15006383896358 246.15006383896358 0 0 0 147.0248344778527,7.189777012220186 L 146.30528615961248,4.277346718167182 L 153.9404298836831,5.996235985335173 L 147.98423223550634,11.073017404290859 L 147.26468391726613,8.160587110237854 A 247.15006383896358 247.15006383896358 0 0 1 114.58413156663833,13.939454986236683"/><text text-anchor="middle" pointer-events="none" font-size="8px" fill="#000000" x="85.57015018960105" y="17.863042948009763" transform="rotate(180 85.57015018960105 14.863042948009763)" font-family="Helvetica Neue, Helvetica, Arial, sans-serif">Winning_Entry</text></g><g class="relationship" transform="translate(225.6963025840755 110.34938762582006) rotate(186.81026109041147)"><path class="b-outline" fill="#A5ABB6" stroke="none" d="M 24.018736134675446,6.953439040707552 L 24.277555179777966,5.987513214418485 A 184.4522396484247 184.4522396484247 0 0 0 41.05456213771454,9.655248378946084 L 40.886698924809636,10.641058675987694 A 185.4522396484247 185.4522396484247 0 0 1 24.018736134675446,6.953439040707552 Z M 98.82466563287979,11.324823678280382 L 98.68011435665312,10.335326367247546 A 184.4522396484247 184.4522396484247 0 0 0 115.53900735320072,7.064551132732307 L 114.83115420286407,4.14925630758023 L 122.45933747027834,5.898776252805465 L 116.48281155364958,10.951610899601743 L 115.77495840331294,8.036316074449665 A 185.4522396484247 185.4522396484247 0 0 1 98.82466563287979,11.324823678280382"/><text text-anchor="middle" pointer-events="none" font-size="8px" fill="#000000" x="69.83471364244468" y="15.759692186011222" transform="rotate(180 69.83471364244468 12.759692186011222)" font-family="Helvetica Neue, Helvetica, Arial, sans-serif">Winning_Entry</text></g><g class="relationship" transform="translate(96.1111326547755 243.51021810366086) rotate(263.8840908599988)"><path class="b-outline" fill="#A5ABB6" stroke="none" d="M 24.018736134675446,6.953439040707552 L 24.277555179777966,5.987513214418485 A 193.6389402418583 193.6389402418583 0 0 0 43.37455856621749,10.084754812831193 L 43.21436123099721,11.071839821221232 A 194.6389402418583 194.6389402418583 0 0 1 24.018736134675446,6.953439040707552 Z M 101.16716098748292,11.735581991302553 L 101.02961317630815,10.745086862772894 A 193.6389402418583 193.6389402418583 0 0 0 120.21544747810475,7.086304387488546 L 119.50556267962826,4.171503609923812 L 127.13496342550188,5.915706653970832 L 121.16196054274009,10.972705424241525 L 120.4520757442636,8.057904646676791 A 194.6389402418583 194.6389402418583 0 0 1 101.16716098748292,11.735581991302553"/><text text-anchor="middle" pointer-events="none" font-size="8px" fill="#000000" x="72.17164399748225" y="16.072868298336658" transform="rotate(180 72.17164399748225 13.072868298336658)" font-family="Helvetica Neue, Helvetica, Arial, sans-serif">Winning_Entry</text></g><g class="relationship" transform="translate(-79.34543102831671 -6.391686936355787) rotate(391.94365440681815)"><path class="b-outline" fill="#A5ABB6" stroke="none" d="M 24.018736134675446,6.953439040707552 L 24.277555179777966,5.987513214418485 A 264.809716074427 264.809716074427 0 0 0 61.46563853852414,13.148456803708882 L 61.34725272189234,14.141424476103339 A 265.809716074427 265.809716074427 0 0 1 24.018736134675446,6.953439040707552 Z M 119.36173965100747,14.681771198405556 L 119.26186976282195,13.686770693162543 A 264.809716074427 264.809716074427 0 0 0 156.57688394404823,7.219748686015504 L 155.85453660882322,4.308011347708126 L 163.49132895596964,6.0195611268750575 L 157.54001372434826,11.102065137092008 L 156.81766638912325,8.19032779878463 A 265.809716074427 265.809716074427 0 0 1 119.36173965100747,14.681771198405556"/><text text-anchor="middle" pointer-events="none" font-size="8px" fill="#000000" x="90.34436646547266" y="18.499178349866156" font-family="Helvetica Neue, Helvetica, Arial, sans-serif">Winning_Entry</text></g><g class="relationship" transform="translate(186.90075389863222 202.27161076582553) rotate(225.63640970870813)"><path class="b-outline" fill="#A5ABB6" stroke="none" d="M 24.018736134675446,6.953439040707552 L 24.277555179777966,5.987513214418485 A 196.5751833177276 196.5751833177276 0 0 0 44.117033570130985,10.219843331394344 L 43.959140176250095,11.20729949557014 A 197.5751833177276 197.5751833177276 0 0 1 24.018736134675446,6.953439040707552 Z M 101.91618165743375,11.864879017055898 L 101.78073334458836,10.874094603297124 A 196.5751833177276 196.5751833177276 0 0 0 121.71113198567598,7.092992776094717 L 121.00062252894305,4.178344201756278 L 128.63039690192116,5.920912139440983 L 122.65847792798654,10.979190875212636 L 121.94796847125362,8.064542300874196 A 197.5751833177276 197.5751833177276 0 0 1 101.91618165743375,11.864879017055898"/><text text-anchor="middle" pointer-events="none" font-size="8px" fill="#000000" x="72.91908893776659" y="16.17296651067977" transform="rotate(180 72.91908893776659 13.172966510679771)" font-family="Helvetica Neue, Helvetica, Arial, sans-serif">Winning_Entry</text></g><g class="relationship" transform="translate(-38.70436072753994 167.31713662103695) rotate(327.92753275463235)"><path class="b-outline" fill="#A5ABB6" stroke="none" d="M 24.018736134675446,6.953439040707552 L 24.277555179777966,5.987513214418485 A 171.26813839400847 171.26813839400847 0 0 0 37.73409219506619,9.018133440326181 L 37.55384314635337,10.001754444797967 A 172.26813839400847 172.26813839400847 0 0 1 24.018736134675446,6.953439040707552 Z M 95.46548749964654,10.716372593732018 L 95.309565014301,9.72860329953238 A 171.26813839400847 171.26813839400847 0 0 0 108.83678769323078,7.03095729011089 L 108.13207209016967,4.114902434865156 L 115.75836828931435,5.872630025509252 L 109.77640849731226,10.919030430438534 L 109.07169289425116,8.002975575192801 A 172.26813839400847 172.26813839400847 0 0 1 95.46548749964654,10.716372593732018"/><text text-anchor="middle" pointer-events="none" font-size="8px" fill="#000000" x="66.48558797964148" y="15.310257380809531" font-family="Helvetica Neue, Helvetica, Arial, sans-serif">Winning_Entry</text></g><g class="relationship" transform="translate(484.68487943434576 135.64456713107398) rotate(243.06588247712705)"><path class="b-outline" fill="#A5ABB6" stroke="none" d="M 24.018736134675446,6.953439040707552 L 24.277555179777966,5.987513214418485 A 180.46318247533245 180.46318247533245 0 0 0 40.04870425023482,9.465236775255107 L 39.87727781815248,10.450433698912263 A 181.46318247533245 181.46318247533245 0 0 1 24.018736134675446,6.953439040707552 Z M 97.80797140806412,11.143260046330653 L 97.66015570628944,10.154245123132398 A 180.46318247533245 180.46318247533245 0 0 0 113.50996616343512,7.054694729813119 L 112.80303356085217,4.13917654338291 L 120.43066403220277,5.8911050215245995 L 114.45254296687905,10.942052311720065 L 113.7456103642961,8.026534125289855 A 181.46318247533245 181.46318247533245 0 0 1 97.80797140806412,11.143260046330653"/><text text-anchor="middle" pointer-events="none" font-size="8px" fill="#000000" x="68.82077614972222" y="15.623706723644602" transform="rotate(180 68.82077614972222 12.623706723644602)" font-family="Helvetica Neue, Helvetica, Arial, sans-serif">Winning_Entry</text></g><g class="relationship" transform="translate(553.8664739231308 -40.748650146451844) rotate(520.6315224582804)"><path class="b-outline" fill="#A5ABB6" stroke="none" d="M 24.018736134675446,-6.953439040707552 L 24.277555179777966,-5.987513214418485 A 176.71009057764945 176.71009057764945 0 0 1 39.103267725402254,-9.284345191871068 L 38.92834718602264,-10.268927745496285 A 177.71009057764945 177.71009057764945 0 0 0 24.018736134675446,-6.953439040707552 Z M 96.8516742855553,-10.970492752011523 L 96.70065201036962,-9.981962392134932 A 176.71009057764945 176.71009057764945 0 0 1 111.6018658211471,-7.045181750253437 L 110.8958216965224,-4.12944827579406 L 118.52291794898976,-5.88370103853906 L 112.54325798731335,-10.93282638286594 L 111.83721386268866,-8.017092908406562 A 177.71009057764945 177.71009057764945 0 0 0 96.8516742855553,-10.970492752011523"/><text text-anchor="middle" pointer-events="none" font-size="8px" fill="#000000" x="67.86728801622279" y="-9.495766645239627" transform="rotate(180 67.86728801622279 -12.495766645239627)" font-family="Helvetica Neue, Helvetica, Arial, sans-serif">Winning_Entry</text></g><g class="relationship" transform="translate(285.2619883165555 -48.56681120867567) rotate(382.402801003979)"><path class="b-outline" fill="#A5ABB6" stroke="none" d="M 24.018736134675446,6.953439040707552 L 24.277555179777966,5.987513214418485 A 180.5971945753576 180.5971945753576 0 0 0 40.0824799133041,9.471657109787344 L 39.91117565363713,10.45687528390917 A 181.5971945753576 181.5971945753576 0 0 1 24.018736134675446,6.953439040707552 Z M 97.8421226095175,11.149393467274336 L 97.69441892915904,10.160361808120513 A 180.5971945753576 180.5971945753576 0 0 0 113.57811557891443,7.055030061816132 L 112.87115165761405,4.1395194694876505 L 120.49880094789762,5.891366010836628 L 114.52073414064829,10.942377518254107 L 113.8137702193479,8.026866925925626 A 181.5971945753576 181.5971945753576 0 0 1 97.8421226095175,11.149393467274336"/><text text-anchor="middle" pointer-events="none" font-size="8px" fill="#000000" x="68.85483103226616" y="15.628275121687693" font-family="Helvetica Neue, Helvetica, Arial, sans-serif">Winning_Entry</text></g><g class="relationship" transform="translate(375.7864450624374 -132.99303277068256) rotate(432.75289949113545)"><path class="b-outline" fill="#A5ABB6" stroke="none" d="M 24.018736134675446,6.953439040707552 L 24.277555179777966,5.987513214418485 A 183.32943146763353 183.32943146763353 0 0 0 40.77134254204669,9.601992033974625 L 40.60249152461015,10.587633618888049 A 184.32943146763353 184.32943146763353 0 0 1 24.018736134675446,6.953439040707552 Z M 98.5384660969315,11.273925973354693 L 98.39301041841051,10.28456120463386 A 183.32943146763353 183.32943146763353 0 0 0 114.96778966287496,7.061802807542424 L 114.2601931943981,4.146445670277922 L 121.88822239457161,5.896637237307166 L 115.91125162084411,10.948945657228426 L 115.20365515236725,8.033588519963924 A 184.32943146763353 184.32943146763353 0 0 1 98.5384660969315,11.273925973354693"/><text text-anchor="middle" pointer-events="none" font-size="8px" fill="#000000" x="69.54926746674018" y="15.72141593013319" font-family="Helvetica Neue, Helvetica, Arial, sans-serif">Winning_Entry</text></g><g class="relationship" transform="translate(398.40690762890847 -339.9510828373664) rotate(383.69176076901545)"><path class="b-outline" fill="#A5ABB6" stroke="none" d="M 24.018736134675446,6.953439040707552 L 24.277555179777966,5.987513214418485 A 175.83939160574877 175.83939160574877 0 0 0 38.88406453085263,9.24207169494602 L 38.708312819057454,10.226506220854702 A 176.83939160574877 176.83939160574877 0 0 1 24.018736134675446,6.953439040707552 Z M 96.62985331820481,10.930128878538511 L 96.47806748322829,9.941715472973584 A 175.83939160574877 175.83939160574877 0 0 0 111.15932665441076,7.042940649919077 L 110.45349184111846,4.127156498726704 L 118.08046214274168,5.881956777435788 L 112.10043973880049,10.93065285150891 L 111.39460492550819,8.014868700316535 A 176.83939160574877 176.83939160574877 0 0 1 96.62985331820481,10.930128878538511"/><text text-anchor="middle" pointer-events="none" font-size="8px" fill="#000000" x="67.64615073273079" y="15.466085386742321" font-family="Helvetica Neue, Helvetica, Arial, sans-serif">Winning_Entry</text></g><g class="relationship" transform="translate(190.92556659239563 -557.8919735654458) rotate(387.3441766380842)"><path class="b-outline" fill="#A5ABB6" stroke="none" d="M 24.018736134675446,-6.953439040707552 L 24.277555179777966,-5.987513214418485 A 174.41906161203448 174.41906161203448 0 0 1 38.52660005907159,-9.172856088836284 L 38.34947532391203,-10.157044499759024 A 175.41906161203448 175.41906161203448 0 0 0 24.018736134675446,-6.953439040707552 Z M 96.26803560955659,-10.864048664277874 L 96.1149877867661,-9.875829880840172 A 174.41906161203448 174.41906161203448 0 0 1 110.43754139454333,-7.039256710256443 L 109.7320506495255,-4.123389290654824 L 117.35881383111673,-5.879089541815141 L 111.37819572123375,-10.927079936391936 L 110.67270497621593,-8.011212516790316 A 175.41906161203448 175.41906161203448 0 0 0 96.26803560955659,-10.864048664277874"/><text text-anchor="middle" pointer-events="none" font-size="8px" fill="#000000" x="67.28547548989582" y="-9.41766793948159" font-family="Helvetica Neue, Helvetica, Arial, sans-serif">Winning_Entry</text></g><g class="relationship" transform="translate(-130.6503412266012 -578.8344394049783) rotate(380.81640859240133)"><path class="b-outline" fill="#A5ABB6" stroke="none" d="M 24.018736134675446,6.953439040707552 L 24.277555179777966,5.987513214418485 A 176.0367198330946 176.0367198330946 0 0 0 38.933738476770316,9.251662616659075 L 38.75817583016743,10.236130877761354 A 177.0367198330946 177.0367198330946 0 0 1 24.018736134675446,6.953439040707552 Z M 96.68012388283445,10.939286191705037 L 96.52851175966487,9.95084612568786 A 176.0367198330946 176.0367198330946 0 0 0 111.25961579726683,7.0434496978624805 L 110.55373344056456,4.12767705609213 L 118.18073235418136,5.882352972518908 L 112.20079227286986,10.931146553556282 L 111.49490991616759,8.01537391178593 A 177.0367198330946 177.0367198330946 0 0 1 96.68012388283445,10.939286191705037"/><text text-anchor="middle" pointer-events="none" font-size="8px" fill="#000000" x="67.69626525688156" y="15.472812101576693" font-family="Helvetica Neue, Helvetica, Arial, sans-serif">Winning_Entry</text></g><g class="relationship" transform="translate(-118.40714974245996 -316.9167483176421) rotate(436.44070917110923)"><path class="b-outline" fill="#A5ABB6" stroke="none" d="M 24.018736134675446,6.953439040707552 L 24.277555179777966,5.987513214418485 A 185.78588848151958 185.78588848151958 0 0 0 41.391062465857196,9.718280868255249 L 41.22435756045577,10.70428770114998 A 186.78588848151958 186.78588848151958 0 0 1 24.018736134675446,6.953439040707552 Z M 99.16463671647708,11.385073974712299 L 99.02114538796036,10.395422400348622 A 185.78588848151958 185.78588848151958 0 0 0 116.2175874174089,7.0677895411809795 L 115.50943181400282,4.1525681702788315 L 123.13779655008157,5.901296695050524 L 117.16179488861698,10.95475136905051 L 116.45363928521091,8.039529998148362 A 186.78588848151958 186.78588848151958 0 0 1 99.16463671647708,11.385073974712299"/><text text-anchor="middle" pointer-events="none" font-size="8px" fill="#000000" x="70.17381191907931" y="15.805156088733753" font-family="Helvetica Neue, Helvetica, Arial, sans-serif">Winning_Entry</text></g><g class="relationship selected" transform="translate(55.69123994828864 -206.88153940292165) rotate(526.5823439925615)"><path class="b-outline" fill="#A5ABB6" stroke="none" d="M 24.018736134675446,6.953439040707552 L 24.277555179777966,5.987513214418485 A 177.94635836297203 177.94635836297203 0 0 0 39.41459232756169,9.344165817921635 L 39.24083845202509,10.328954927698959 A 178.94635836297203 178.94635836297203 0 0 1 24.018736134675446,6.953439040707552 Z M 97.16665105135216,11.027618132399027 L 97.01670002934718,10.038924706204796 A 177.94635836297203 177.94635836297203 0 0 0 112.23029337712501,7.048341525212345 L 111.52395414042799,4.132679527877558 L 119.15122791035569,5.886160305808445 L 113.17207902605436,10.935890854992062 L 112.46573978935734,8.020228857657274 A 178.94635836297203 178.94635836297203 0 0 1 97.16665105135216,11.027618132399027"/><text text-anchor="middle" pointer-events="none" font-size="8px" fill="#000000" x="68.18131519256782" y="15.537909921658922" transform="rotate(180 68.18131519256782 12.537909921658922)" font-family="Helvetica Neue, Helvetica, Arial, sans-serif">Winning_Entry</text></g><g class="relationship" transform="translate(-79.34543102831671 -6.391686936355787) rotate(268.4596383369309)"><path class="b-outline" fill="#A5ABB6" stroke="none" d="M 24.018736134675446,6.953439040707552 L 24.277555179777966,5.987513214418485 A 224.71850600937015 224.71850600937015 0 0 0 51.25324411574991,11.470159918249237 L 51.114467204315034,12.46048358698215 A 225.71850600937015 225.71850600937015 0 0 1 24.018736134675446,6.953439040707552 Z M 109.10288634331302,13.064187688899267 L 108.98475734054432,12.07118943174828 A 224.71850600937015 224.71850600937015 0 0 0 136.0687442144165,7.1513455861310815 L 135.35278502380774,4.238030903954986 L 142.98580500459553,5.96632658840659 L 137.02335646856156,11.035765162365877 L 136.3073972779528,8.12245048018978 A 225.71850600937015 225.71850600937015 0 0 1 109.10288634331302,13.064187688899267"/><text text-anchor="middle" pointer-events="none" font-size="8px" fill="#000000" x="80.09441328038304" y="17.1324065598306" transform="rotate(180 80.09441328038304 14.1324065598306)" font-family="Helvetica Neue, Helvetica, Arial, sans-serif">Winning_Entry</text></g><g class="relationship" transform="translate(-287.0086526486762 -217.83808340770355) rotate(421.08910398915134)"><path class="b-outline" fill="#A5ABB6" stroke="none" d="M 24.018736134675446,6.953439040707552 L 24.277555179777966,5.987513214418485 A 186.83274307953445 186.83274307953445 0 0 0 41.65527328622517,9.767590994352247 L 41.489466407084635,10.753749236638782 A 187.83274307953445 187.83274307953445 0 0 1 24.018736134675446,6.953439040707552 Z M 99.43152091156766,11.432214813910832 L 99.28885093223018,10.442444498637713 A 186.83274307953445 186.83274307953445 0 0 0 116.7503169920953,7.07031199091131 L 116.0419258033655,4.155147857671131 L 123.67043183444403,5.903259906081779 L 117.6948385770684,10.957197501898214 L 116.98644738833859,8.042033368658036 A 187.83274307953445 187.83274307953445 0 0 1 99.43152091156766,11.432214813910832"/><text text-anchor="middle" pointer-events="none" font-size="8px" fill="#000000" x="70.44002728595069" y="15.840843318985947" font-family="Helvetica Neue, Helvetica, Arial, sans-serif">Winning_Entry</text></g><g class="relationship" transform="translate(-79.34543102831671 -6.391686936355787) rotate(211.039505945219)"><path class="b-outline" fill="#A5ABB6" stroke="none" d="M 24.018736134675446,6.953439040707552 L 24.277555179777966,5.987513214418485 A 208.28018432153823 208.28018432153823 0 0 0 47.08096716781542,10.748980035618871 L 46.93163243137298,11.737766734807138 A 209.28018432153823 209.28018432153823 0 0 1 24.018736134675446,6.953439040707552 Z M 104.90356122307944,12.371844331861723 L 104.7758896630125,11.380027830310127 A 208.28018432153823 208.28018432153823 0 0 0 127.67799245223436,7.118472666115969 L 126.96510333586737,4.204405215323952 L 134.59629802347692,5.940742636391647 L 128.62851127405702,11.003895933838658 L 127.91562215769004,8.089828483046642 A 209.28018432153823 209.28018432153823 0 0 1 104.90356122307944,12.371844331861723"/><text text-anchor="middle" pointer-events="none" font-size="8px" fill="#000000" x="75.90100224918578" y="16.572001064224082" transform="rotate(180 75.90100224918578 13.572001064224082)" font-family="Helvetica Neue, Helvetica, Arial, sans-serif">Winning_Entry</text></g><g class="relationship" transform="translate(-484.1920814438598 -159.0133931653688) rotate(259.3393650199216)"><path class="b-outline" fill="#A5ABB6" stroke="none" d="M 24.018736134675446,6.953439040707552 L 24.277555179777966,5.987513214418485 A 176.09822409983605 176.09822409983605 0 0 0 38.94922164687766,9.254650714349623 L 38.77371784553808,10.239129467657847 A 177.09822409983605 177.09822409983605 0 0 1 24.018736134675446,6.953439040707552 Z M 96.6957926071861,10.9421392392548 L 96.54423454748186,9.953690882212982 A 176.09822409983605 176.09822409983605 0 0 0 111.29087495415178,7.043608223310985 L 110.58497779169464,4.127839165920641 L 118.21198561513876,5.88247635380941 L 112.23207117076127,10.931300299831443 L 111.52617400830414,8.0155312424411 A 177.09822409983605 177.09822409983605 0 0 1 96.6957926071861,10.9421392392548"/><text text-anchor="middle" pointer-events="none" font-size="8px" fill="#000000" x="67.71188547770514" y="15.47490871920104" transform="rotate(180 67.71188547770514 12.47490871920104)" font-family="Helvetica Neue, Helvetica, Arial, sans-serif">Winning_Entry</text></g><g class="relationship" transform="translate(-569.4015626108666 142.2174791971195) rotate(261.5171503427273)"><path class="b-outline" fill="#A5ABB6" stroke="none" d="M 24.018736134675446,6.953439040707552 L 24.277555179777966,5.987513214418485 A 175.57560628959203 175.57560628959203 0 0 0 38.817665320098,9.229241124032 L 38.64166022875361,10.213630380282211 A 176.57560628959203 176.57560628959203 0 0 1 24.018736134675446,6.953439040707552 Z M 96.56265346615307,10.917878707400376 L 96.41063480351184,9.929501084116254 A 175.57560628959203 175.57560628959203 0 0 0 111.02526570987283,7.042259112365283 L 110.31949454997495,4.126459553092321 L 117.94642654149273,5.8814263324823814 L 111.96629392307001,10.929991858062566 L 111.26052276317213,8.014192298789604 A 176.57560628959203 176.57560628959203 0 0 1 96.56265346615307,10.917878707400376"/><text text-anchor="middle" pointer-events="none" font-size="8px" fill="#000000" x="67.57916048589108" y="15.457093225442748" transform="rotate(180 67.57916048589108 12.457093225442748)" font-family="Helvetica Neue, Helvetica, Arial, sans-serif">Winning_Entry</text></g><g class="relationship" transform="translate(-450.5816287646459 315.72323547260714) rotate(434.5427001543059)"><path class="b-outline" fill="#A5ABB6" stroke="none" d="M 24.018736134675446,6.953439040707552 L 24.277555179777966,5.987513214418485 A 177.10992497952918 177.10992497952918 0 0 0 39.20394534156931,9.303718127273441 L 39.02940384422995,10.288367946095633 A 178.10992497952918 178.10992497952918 0 0 1 24.018736134675446,6.953439040707552 Z M 96.95354131475727,10.988991921868575 L 96.80286714835873,10.000408442550764 A 177.10992497952918 177.10992497952918 0 0 0 111.80510129418128,7.0462065334088075 L 111.09896145829393,4.130496237070544 L 118.72611529161847,5.884498632394676 L 112.74662107536443,10.933820261859827 L 112.04048123947707,8.018109965521562 A 178.10992497952918 178.10992497952918 0 0 1 96.95354131475727,10.988991921868575"/><text text-anchor="middle" pointer-events="none" font-size="8px" fill="#000000" x="67.9688452426799" y="15.509396628686488" font-family="Helvetica Neue, Helvetica, Arial, sans-serif">Winning_Entry</text></g></g><g class="layer nodes"><g class="node" aria-label="graph-node69" transform="translate(17.8290638581364,583.8535191378053)"><circle class="b-outline" cx="0" cy="0" r="25" fill="#C990C0" stroke="#b261a5" stroke-width="2px"/><text class="caption" text-anchor="middle" pointer-events="none" x="0" y="5" font-size="10px" fill="#FFFFFF" font-family="Helvetica Neue, Helvetica, Arial, sans-serif"> Switzerl…</text></g><g class="node" aria-label="graph-node0" transform="translate(159.83525793111718,560.7216117916374)"><circle class="b-outline" cx="0" cy="0" r="25" fill="#F79767" stroke="#f36924" stroke-width="2px"/><text class="caption" text-anchor="middle" pointer-events="none" x="0" y="5" font-size="10px" fill="#FFFFFF" font-family="Helvetica Neue, Helvetica, Arial, sans-serif"> 1956</text></g><g class="node" aria-label="graph-node70" transform="translate(-199.85635515251448,124.8948868810997)"><circle class="b-outline" cx="0" cy="0" r="25" fill="#C990C0" stroke="#b261a5" stroke-width="2px"/><text class="caption" text-anchor="middle" pointer-events="none" x="0" y="5" font-size="10px" fill="#FFFFFF" font-family="Helvetica Neue, Helvetica, Arial, sans-serif"> Netherla…</text></g><g class="node" aria-label="graph-node1" transform="translate(-209.51310461171616,275.62775406073854)"><circle class="b-outline" cx="0" cy="0" r="25" fill="#F79767" stroke="#f36924" stroke-width="2px"/><text class="caption" text-anchor="middle" pointer-events="none" x="0" y="5" font-size="10px" fill="#FFFFFF" font-family="Helvetica Neue, Helvetica, Arial, sans-serif"> 1957</text></g><g class="node" aria-label="graph-node71" transform="translate(79.97829183854402,92.94709858898267)"><circle class="b-outline" cx="0" cy="0" r="25" fill="#C990C0" stroke="#b261a5" stroke-width="2px"/><text class="caption" text-anchor="middle" pointer-events="none" x="0" y="5" font-size="10px" fill="#FFFFFF" font-family="Helvetica Neue, Helvetica, Arial, sans-serif"> France</text></g><g class="node" aria-label="graph-node2" transform="translate(96.1111326547755,243.51021810366086)"><circle class="b-outline" cx="0" cy="0" r="25" fill="#F79767" stroke="#f36924" stroke-width="2px"/><text class="caption" text-anchor="middle" pointer-events="none" x="0" y="5" font-size="10px" fill="#FFFFFF" font-family="Helvetica Neue, Helvetica, Arial, sans-serif"> 1958</text></g><g class="node" aria-label="graph-node3" transform="translate(-113.77108753378779,247.5368236945257)"><circle class="b-outline" cx="0" cy="0" r="25" fill="#F79767" stroke="#f36924" stroke-width="2px"/><text class="caption" text-anchor="middle" pointer-events="none" x="0" y="5" font-size="10px" fill="#FFFFFF" font-family="Helvetica Neue, Helvetica, Arial, sans-serif"> 1959</text></g><g class="node" aria-label="graph-node4" transform="translate(186.90075389863222,202.27161076582553)"><circle class="b-outline" cx="0" cy="0" r="25" fill="#F79767" stroke="#f36924" stroke-width="2px"/><text class="caption" text-anchor="middle" pointer-events="none" x="0" y="5" font-size="10px" fill="#FFFFFF" font-family="Helvetica Neue, Helvetica, Arial, sans-serif"> 1960</text></g><g class="node" aria-label="graph-node72" transform="translate(419.1286771560277,6.616712579419855)"><circle class="b-outline" cx="0" cy="0" r="25" fill="#C990C0" stroke="#b261a5" stroke-width="2px"/><text class="caption" text-anchor="middle" pointer-events="none" x="0" y="5" font-size="10px" fill="#FFFFFF" font-family="Helvetica Neue, Helvetica, Arial, sans-serif"> Luxemb…</text></g><g class="node" aria-label="graph-node5" transform="translate(484.68487943434576,135.64456713107398)"><circle class="b-outline" cx="0" cy="0" r="25" fill="#F79767" stroke="#f36924" stroke-width="2px"/><text class="caption" text-anchor="middle" pointer-events="none" x="0" y="5" font-size="10px" fill="#FFFFFF" font-family="Helvetica Neue, Helvetica, Arial, sans-serif"> 1961</text></g><g class="node" aria-label="graph-node6" transform="translate(225.6963025840755,110.34938762582006)"><circle class="b-outline" cx="0" cy="0" r="25" fill="#F79767" stroke="#f36924" stroke-width="2px"/><text class="caption" text-anchor="middle" pointer-events="none" x="0" y="5" font-size="10px" fill="#FFFFFF" font-family="Helvetica Neue, Helvetica, Arial, sans-serif"> 1962</text></g><g class="node" aria-label="graph-node73" transform="translate(528.7859520458074,-282.74104377716816)"><circle class="b-outline" cx="0" cy="0" r="25" fill="#C990C0" stroke="#b261a5" stroke-width="2px"/><text class="caption" text-anchor="middle" pointer-events="none" x="0" y="5" font-size="10px" fill="#FFFFFF" font-family="Helvetica Neue, Helvetica, Arial, sans-serif"> Denmark</text></g><g class="node" aria-label="graph-node7" transform="translate(398.40690762890847,-339.9510828373664)"><circle class="b-outline" cx="0" cy="0" r="25" fill="#F79767" stroke="#f36924" stroke-width="2px"/><text class="caption" text-anchor="middle" pointer-events="none" x="0" y="5" font-size="10px" fill="#FFFFFF" font-family="Helvetica Neue, Helvetica, Arial, sans-serif"> 1963</text></g><g class="node" aria-label="graph-node74" transform="translate(316.7549158962567,-492.82369118972116)"><circle class="b-outline" cx="0" cy="0" r="25" fill="#C990C0" stroke="#b261a5" stroke-width="2px"/><text class="caption" text-anchor="middle" pointer-events="none" x="0" y="5" font-size="10px" fill="#FFFFFF" font-family="Helvetica Neue, Helvetica, Arial, sans-serif"> Italy</text></g><g class="node" aria-label="graph-node8" transform="translate(190.92556659239563,-557.8919735654458)"><circle class="b-outline" cx="0" cy="0" r="25" fill="#F79767" stroke="#f36924" stroke-width="2px"/><text class="caption" text-anchor="middle" pointer-events="none" x="0" y="5" font-size="10px" fill="#FFFFFF" font-family="Helvetica Neue, Helvetica, Arial, sans-serif"> 1964</text></g><g class="node" aria-label="graph-node9" transform="translate(553.8664739231308,-40.748650146451844)"><circle class="b-outline" cx="0" cy="0" r="25" fill="#F79767" stroke="#f36924" stroke-width="2px"/><text class="caption" text-anchor="middle" pointer-events="none" x="0" y="5" font-size="10px" fill="#FFFFFF" font-family="Helvetica Neue, Helvetica, Arial, sans-serif"> 1965</text></g><g class="node" aria-label="graph-node75" transform="translate(2.5280394770849157,-528.2010699127833)"><circle class="b-outline" cx="0" cy="0" r="25" fill="#C990C0" stroke="#b261a5" stroke-width="2px"/><text class="caption" text-anchor="middle" pointer-events="none" x="0" y="5" font-size="10px" fill="#FFFFFF" font-family="Helvetica Neue, Helvetica, Arial, sans-serif"> Austria</text></g><g class="node" aria-label="graph-node10" transform="translate(-130.6503412266012,-578.8344394049783)"><circle class="b-outline" cx="0" cy="0" r="25" fill="#F79767" stroke="#f36924" stroke-width="2px"/><text class="caption" text-anchor="middle" pointer-events="none" x="0" y="5" font-size="10px" fill="#FFFFFF" font-family="Helvetica Neue, Helvetica, Arial, sans-serif"> 1966</text></g><g class="node" aria-label="graph-node76" transform="translate(-83.84166335040268,-173.5946714366416)"><circle class="b-outline" cx="0" cy="0" r="25" fill="#C990C0" stroke="#b261a5" stroke-width="2px"/><text class="caption" text-anchor="middle" pointer-events="none" x="0" y="0" font-size="10px" fill="#FFFFFF" font-family="Helvetica Neue, Helvetica, Arial, sans-serif"> United</text><text class="caption" text-anchor="middle" pointer-events="none" x="0" y="10" font-size="10px" fill="#FFFFFF" font-family="Helvetica Neue, Helvetica, Arial, sans-serif"> Kingd…</text></g><g class="node selected" aria-label="graph-node11" transform="translate(-118.40714974245996,-316.9167483176421)"><circle class="b-outline" cx="0" cy="0" r="25" fill="#F79767" stroke="#f36924" stroke-width="2px"/><text class="caption" text-anchor="middle" pointer-events="none" x="0" y="5" font-size="10px" fill="#FFFFFF" font-family="Helvetica Neue, Helvetica, Arial, sans-serif"> 1967</text></g><g class="node" aria-label="graph-node77" transform="translate(-215.4758831537059,-88.3149185242994)"><circle class="b-outline" cx="0" cy="0" r="25" fill="#C990C0" stroke="#b261a5" stroke-width="2px"/><text class="caption" text-anchor="middle" pointer-events="none" x="0" y="5" font-size="10px" fill="#FFFFFF" font-family="Helvetica Neue, Helvetica, Arial, sans-serif"> Spain</text></g><g class="node" aria-label="graph-node12" transform="translate(-287.0086526486762,-217.83808340770355)"><circle class="b-outline" cx="0" cy="0" r="25" fill="#F79767" stroke="#f36924" stroke-width="2px"/><text class="caption" text-anchor="middle" pointer-events="none" x="0" y="5" font-size="10px" fill="#FFFFFF" font-family="Helvetica Neue, Helvetica, Arial, sans-serif"> 1968</text></g><g class="node" aria-label="graph-node13" transform="translate(-79.34543102831671,-6.391686936355787)"><circle class="b-outline" cx="0" cy="0" r="25" fill="#F79767" stroke="#f36924" stroke-width="2px"/><text class="caption" text-anchor="middle" pointer-events="none" x="0" y="5" font-size="10px" fill="#FFFFFF" font-family="Helvetica Neue, Helvetica, Arial, sans-serif"> 1969</text></g><g class="node" aria-label="graph-node78" transform="translate(-510.5552268894273,-299.0637486631614)"><circle class="b-outline" cx="0" cy="0" r="25" fill="#C990C0" stroke="#b261a5" stroke-width="2px"/><text class="caption" text-anchor="middle" pointer-events="none" x="0" y="5" font-size="10px" fill="#FFFFFF" font-family="Helvetica Neue, Helvetica, Arial, sans-serif"> Ireland</text></g><g class="node" aria-label="graph-node14" transform="translate(-484.1920814438598,-159.0133931653688)"><circle class="b-outline" cx="0" cy="0" r="25" fill="#F79767" stroke="#f36924" stroke-width="2px"/><text class="caption" text-anchor="middle" pointer-events="none" x="0" y="5" font-size="10px" fill="#FFFFFF" font-family="Helvetica Neue, Helvetica, Arial, sans-serif"> 1970</text></g><g class="node" aria-label="graph-node79" transform="translate(-590.384564888394,1.528871689559147)"><circle class="b-outline" cx="0" cy="0" r="25" fill="#C990C0" stroke="#b261a5" stroke-width="2px"/><text class="caption" text-anchor="middle" pointer-events="none" x="0" y="5" font-size="10px" fill="#FFFFFF" font-family="Helvetica Neue, Helvetica, Arial, sans-serif"> Monaco</text></g><g class="node" aria-label="graph-node15" transform="translate(-569.4015626108666,142.2174791971195)"><circle class="b-outline" cx="0" cy="0" r="25" fill="#F79767" stroke="#f36924" stroke-width="2px"/><text class="caption" text-anchor="middle" pointer-events="none" x="0" y="5" font-size="10px" fill="#FFFFFF" font-family="Helvetica Neue, Helvetica, Arial, sans-serif"> 1971</text></g><g class="node" aria-label="graph-node16" transform="translate(375.7864450624374,-132.99303277068256)"><circle class="b-outline" cx="0" cy="0" r="25" fill="#F79767" stroke="#f36924" stroke-width="2px"/><text class="caption" text-anchor="middle" pointer-events="none" x="0" y="5" font-size="10px" fill="#FFFFFF" font-family="Helvetica Neue, Helvetica, Arial, sans-serif"> 1972</text></g><g class="node" aria-label="graph-node17" transform="translate(285.2619883165555,-48.56681120867567)"><circle class="b-outline" cx="0" cy="0" r="25" fill="#F79767" stroke="#f36924" stroke-width="2px"/><text class="caption" text-anchor="middle" pointer-events="none" x="0" y="5" font-size="10px" fill="#FFFFFF" font-family="Helvetica Neue, Helvetica, Arial, sans-serif"> 1973</text></g><g class="node" aria-label="graph-node80" transform="translate(-412.4629307308767,453.5736759324086)"><circle class="b-outline" cx="0" cy="0" r="25" fill="#C990C0" stroke="#b261a5" stroke-width="2px"/><text class="caption" text-anchor="middle" pointer-events="none" x="0" y="5" font-size="10px" fill="#FFFFFF" font-family="Helvetica Neue, Helvetica, Arial, sans-serif"> Sweden</text></g><g class="node" aria-label="graph-node18" transform="translate(-450.5816287646459,315.72323547260714)"><circle class="b-outline" cx="0" cy="0" r="25" fill="#F79767" stroke="#f36924" stroke-width="2px"/><text class="caption" text-anchor="middle" pointer-events="none" x="0" y="5" font-size="10px" fill="#FFFFFF" font-family="Helvetica Neue, Helvetica, Arial, sans-serif"> 1974</text></g><g class="node" aria-label="graph-node19" transform="translate(-301.16953447263217,229.84791531834313)"><circle class="b-outline" cx="0" cy="0" r="25" fill="#F79767" stroke="#f36924" stroke-width="2px"/><text class="caption" text-anchor="middle" pointer-events="none" x="0" y="5" font-size="10px" fill="#FFFFFF" font-family="Helvetica Neue, Helvetica, Arial, sans-serif"> 1975</text></g><g class="node" aria-label="graph-node20" transform="translate(55.69123994828864,-206.88153940292165)"><circle class="b-outline" cx="0" cy="0" r="25" fill="#F79767" stroke="#f36924" stroke-width="2px"/><text class="caption" text-anchor="middle" pointer-events="none" x="0" y="5" font-size="10px" fill="#FFFFFF" font-family="Helvetica Neue, Helvetica, Arial, sans-serif"> 1976</text></g><g class="node" aria-label="graph-node21" transform="translate(-38.70436072753994,167.31713662103695)"><circle class="b-outline" cx="0" cy="0" r="25" fill="#F79767" stroke="#f36924" stroke-width="2px"/><text class="caption" text-anchor="middle" pointer-events="none" x="0" y="5" font-size="10px" fill="#FFFFFF" font-family="Helvetica Neue, Helvetica, Arial, sans-serif"> 1977</text></g></g></svg>