<svg xmlns="http://www.w3.org/2000/svg" width="1211.577880859375" height="1239.1885986328125" viewBox="-614.8291625976562 -597.45703125 1211.577880859375 1239.1885986328125"><title>Neo4j Graph Visualization</title><desc>Created using Neo4j (http://www.neo4j.com/)</desc><g class="layer relationships"><g class="relationship" transform="translate(-59.2277993175912 612.7315304877517) rotate(356.9598914703372)"><path class="b-outline" fill="#A5ABB6" stroke="none" d="M 25 0.5 L 39.76074970881302 0.5 L 39.76074970881302 -0.5 L 25 -0.5 Z M 97.78418720881302 0.5 L 112.54493691762605 0.5 L 112.54493691762605 3.5 L 119.54493691762605 0 L 112.54493691762605 -3.5 L 112.54493691762605 -0.5 L 97.78418720881302 -0.5 Z"/><text text-anchor="middle" pointer-events="none" font-size="8px" fill="#000000" x="68.77246845881302" y="3" font-family="Helvetica Neue, Helvetica, Arial, sans-serif">Winning_Entry</text></g><g class="relationship" transform="translate(-113.37700926585795 361.9593430047434) rotate(262.2793103574254)"><path class="b-outline" fill="#A5ABB6" stroke="none" d="M 25 0.5 L 42.74716820536629 0.5 L 42.74716820536629 -0.5 L 25 -0.5 Z M 100.7706057053663 0.5 L 118.51777391073259 0.5 L 118.51777391073259 3.5 L 125.51777391073259 0 L 118.51777391073259 -3.5 L 118.51777391073259 -0.5 L 100.7706057053663 -0.5 Z"/><text text-anchor="middle" pointer-events="none" font-size="8px" fill="#000000" x="71.7588869553663" y="3" transform="rotate(180 71.7588869553663 0)" font-family="Helvetica Neue, Helvetica, Arial, sans-serif">Winning_Entry</text></g><g class="relationship" transform="translate(107.20102487390679 245.25854550061274) rotate(268.58428926139857)"><path class="b-outline" fill="#A5ABB6" stroke="none" d="M 25 0.5 L 41.844157449038846 0.5 L 41.844157449038846 -0.5 L 25 -0.5 Z M 99.86759494903885 0.5 L 116.71175239807769 0.5 L 116.71175239807769 3.5 L 123.71175239807769 0 L 116.71175239807769 -3.5 L 116.71175239807769 -0.5 L 99.86759494903885 -0.5 Z"/><text text-anchor="middle" pointer-events="none" font-size="8px" fill="#000000" x="70.85587619903885" y="3" transform="rotate(180 70.85587619903885 0)" font-family="Helvetica Neue, Helvetica, Arial, sans-serif">Winning_Entry</text></g><g class="relationship" transform="translate(-24.451322326711075 316.7093201845092) rotate(223.5901234689137)"><path class="b-outline" fill="#A5ABB6" stroke="none" d="M 25 0.5 L 42.835684113307906 0.5 L 42.835684113307906 -0.5 L 25 -0.5 Z M 100.8591216133079 0.5 L 118.69480572661581 0.5 L 118.69480572661581 3.5 L 125.69480572661581 0 L 118.69480572661581 -3.5 L 118.69480572661581 -0.5 L 100.8591216133079 -0.5 Z"/><text text-anchor="middle" pointer-events="none" font-size="8px" fill="#000000" x="71.8474028633079" y="3" transform="rotate(180 71.8474028633079 0)" font-family="Helvetica Neue, Helvetica, Arial, sans-serif">Winning_Entry</text></g><g class="relationship" transform="translate(202.22486265211745 215.13752388003402) rotate(230.2200604220103)"><path class="b-outline" fill="#A5ABB6" stroke="none" d="M 25 0.5 L 44.61525967484991 0.5 L 44.61525967484991 -0.5 L 25 -0.5 Z M 102.63869717484991 0.5 L 122.25395684969982 0.5 L 122.25395684969982 3.5 L 129.25395684969982 0 L 122.25395684969982 -3.5 L 122.25395684969982 -0.5 L 102.63869717484991 -0.5 Z"/><text text-anchor="middle" pointer-events="none" font-size="8px" fill="#000000" x="73.62697842484991" y="3" transform="rotate(180 73.62697842484991 0)" font-family="Helvetica Neue, Helvetica, Arial, sans-serif">Winning_Entry</text></g><g class="relationship" transform="translate(483.50330338188786 49.71328229565061) rotate(227.95682264240418)"><path class="b-outline" fill="#A5ABB6" stroke="none" d="M 25 0.5 L 40.369979001754615 0.5 L 40.369979001754615 -0.5 L 25 -0.5 Z M 98.39341650175461 0.5 L 113.76339550350923 0.5 L 113.76339550350923 3.5 L 120.76339550350923 0 L 113.76339550350923 -3.5 L 113.76339550350923 -0.5 L 98.39341650175461 -0.5 Z"/><text text-anchor="middle" pointer-events="none" font-size="8px" fill="#000000" x="69.38169775175461" y="3" transform="rotate(180 69.38169775175461 0)" font-family="Helvetica Neue, Helvetica, Arial, sans-serif">Winning_Entry</text></g><g class="relationship" transform="translate(251.08723084127476 128.20287575059433) rotate(192.09127463845437)"><path class="b-outline" fill="#A5ABB6" stroke="none" d="M 25 0.5 L 42.94238085399536 0.5 L 42.94238085399536 -0.5 L 25 -0.5 Z M 100.96581835399536 0.5 L 118.90819920799072 0.5 L 118.90819920799072 3.5 L 125.90819920799072 0 L 118.90819920799072 -3.5 L 118.90819920799072 -0.5 L 100.96581835399536 -0.5 Z"/><text text-anchor="middle" pointer-events="none" font-size="8px" fill="#000000" x="71.95409960399536" y="3" transform="rotate(180 71.95409960399536 0)" font-family="Helvetica Neue, Helvetica, Arial, sans-serif">Winning_Entry</text></g><g class="relationship" transform="translate(566.3424834089637 -296.474359221163) rotate(449.43951165073526)"><path class="b-outline" fill="#A5ABB6" stroke="none" d="M 25 0.5 L 39.36313788623535 0.5 L 39.36313788623535 -0.5 L 25 -0.5 Z M 97.38657538623535 0.5 L 111.7497132724707 0.5 L 111.7497132724707 3.5 L 118.7497132724707 0 L 111.7497132724707 -3.5 L 111.7497132724707 -0.5 L 97.38657538623535 -0.5 Z"/><text text-anchor="middle" pointer-events="none" font-size="8px" fill="#000000" x="68.37485663623535" y="3" font-family="Helvetica Neue, Helvetica, Arial, sans-serif">Winning_Entry</text></g><g class="relationship" transform="translate(324.62951593506097 -468.4486009538717) rotate(217.58487065479477)"><path class="b-outline" fill="#A5ABB6" stroke="none" d="M 25 0.5 L 38.51085897405203 0.5 L 38.51085897405203 -0.5 L 25 -0.5 Z M 96.53429647405203 0.5 L 110.04515544810405 0.5 L 110.04515544810405 3.5 L 117.04515544810405 0 L 110.04515544810405 -3.5 L 110.04515544810405 -0.5 L 96.53429647405203 -0.5 Z"/><text text-anchor="middle" pointer-events="none" font-size="8px" fill="#000000" x="67.52257772405203" y="3" transform="rotate(180 67.52257772405203 0)" font-family="Helvetica Neue, Helvetica, Arial, sans-serif">Winning_Entry</text></g><g class="relationship" transform="translate(380.15853204553486 -204.7827829295407) rotate(447.7568898897649)"><path class="b-outline" fill="#A5ABB6" stroke="none" d="M 25 0.5 L 40.667496713570344 0.5 L 40.667496713570344 -0.5 L 25 -0.5 Z M 98.69093421357034 0.5 L 114.35843092714069 0.5 L 114.35843092714069 3.5 L 121.35843092714069 0 L 114.35843092714069 -3.5 L 114.35843092714069 -0.5 L 98.69093421357034 -0.5 Z"/><text text-anchor="middle" pointer-events="none" font-size="8px" fill="#000000" x="69.67921546357034" y="3" font-family="Helvetica Neue, Helvetica, Arial, sans-serif">Winning_Entry</text></g><g class="relationship" transform="translate(11.160834280347903 -513.7868857256037) rotate(202.58187723402506)"><path class="b-outline" fill="#A5ABB6" stroke="none" d="M 25 0.5 L 38.67273001831832 0.5 L 38.67273001831832 -0.5 L 25 -0.5 Z M 96.69616751831832 0.5 L 110.36889753663664 0.5 L 110.36889753663664 3.5 L 117.36889753663664 0 L 110.36889753663664 -3.5 L 110.36889753663664 -0.5 L 96.69616751831832 -0.5 Z"/><text text-anchor="middle" pointer-events="none" font-size="8px" fill="#000000" x="67.68444876831832" y="3" transform="rotate(180 67.68444876831832 0)" font-family="Helvetica Neue, Helvetica, Arial, sans-serif">Winning_Entry</text></g><g class="relationship" transform="translate(-144.14101332148525 -283.56393916685636) rotate(436.6225662929029)"><path class="b-outline" fill="#A5ABB6" stroke="none" d="M 25 0.5 L 41.84596881189303 0.5 L 41.84596881189303 -0.5 L 25 -0.5 Z M 99.86940631189303 0.5 L 116.71537512378606 0.5 L 116.71537512378606 3.5 L 123.71537512378606 0 L 116.71537512378606 -3.5 L 116.71537512378606 -0.5 L 99.86940631189303 -0.5 Z"/><text text-anchor="middle" pointer-events="none" font-size="8px" fill="#000000" x="70.85768756189303" y="3" font-family="Helvetica Neue, Helvetica, Arial, sans-serif">Winning_Entry</text></g><g class="relationship" transform="translate(-297.484466404755 -161.05255558446592) rotate(420.89634506872903)"><path class="b-outline" fill="#A5ABB6" stroke="none" d="M 25 0.5 L 41.196914563809926 0.5 L 41.196914563809926 -0.5 L 25 -0.5 Z M 99.22035206380993 0.5 L 115.41726662761985 0.5 L 115.41726662761985 3.5 L 122.41726662761985 0 L 115.41726662761985 -3.5 L 115.41726662761985 -0.5 L 99.22035206380993 -0.5 Z"/><text text-anchor="middle" pointer-events="none" font-size="8px" fill="#000000" x="70.20863331380993" y="3" font-family="Helvetica Neue, Helvetica, Arial, sans-serif">Winning_Entry</text></g><g class="relationship" transform="translate(-80.56292399379667 30.0888355062152) rotate(203.23194719005738)"><path class="b-outline" fill="#A5ABB6" stroke="none" d="M 25 0.5 L 46.50484308363794 0.5 L 46.50484308363794 -0.5 L 25 -0.5 Z M 104.52828058363794 0.5 L 126.03312366727587 0.5 L 126.03312366727587 3.5 L 133.03312366727587 0 L 126.03312366727587 -3.5 L 126.03312366727587 -0.5 L 104.52828058363794 -0.5 Z"/><text text-anchor="middle" pointer-events="none" font-size="8px" fill="#000000" x="75.51656183363794" y="3" transform="rotate(180 75.51656183363794 0)" font-family="Helvetica Neue, Helvetica, Arial, sans-serif">Winning_Entry</text></g><g class="relationship" transform="translate(-80.56292399379667 30.0888355062152) rotate(260.2052755357671)"><path class="b-outline" fill="#A5ABB6" stroke="none" d="M 25 0.5 L 53.224246964167776 0.5 L 53.224246964167776 -0.5 L 25 -0.5 Z M 111.24768446416778 0.5 L 139.47193142833555 0.5 L 139.47193142833555 3.5 L 146.47193142833555 0 L 139.47193142833555 -3.5 L 139.47193142833555 -0.5 L 111.24768446416778 -0.5 Z"/><text text-anchor="middle" pointer-events="none" font-size="8px" fill="#000000" x="82.23596571416778" y="3" transform="rotate(180 82.23596571416778 0)" font-family="Helvetica Neue, Helvetica, Arial, sans-serif">Winning_Entry</text></g><g class="relationship" transform="translate(-80.56292399379667 30.0888355062152) rotate(466.1858269873991)"><path class="b-outline" fill="#A5ABB6" stroke="none" d="M 25 0.5 L 62.61755915319921 0.5 L 62.61755915319921 -0.5 L 25 -0.5 Z M 120.64099665319921 0.5 L 158.25855580639842 0.5 L 158.25855580639842 3.5 L 165.25855580639842 0 L 158.25855580639842 -3.5 L 158.25855580639842 -0.5 L 120.64099665319921 -0.5 Z"/><text text-anchor="middle" pointer-events="none" font-size="8px" fill="#000000" x="91.62927790319921" y="3" transform="rotate(180 91.62927790319921 0)" font-family="Helvetica Neue, Helvetica, Arial, sans-serif">Winning_Entry</text></g><g class="relationship" transform="translate(-80.56292399379667 30.0888355062152) rotate(379.862501511279)"><path class="b-outline" fill="#A5ABB6" stroke="none" d="M 25 0.5 L 65.35523419629718 0.5 L 65.35523419629718 -0.5 L 25 -0.5 Z M 123.37867169629718 0.5 L 163.73390589259435 0.5 L 163.73390589259435 3.5 L 170.73390589259435 0 L 163.73390589259435 -3.5 L 163.73390589259435 -0.5 L 123.37867169629718 -0.5 Z"/><text text-anchor="middle" pointer-events="none" font-size="8px" fill="#000000" x="94.36695294629718" y="3" font-family="Helvetica Neue, Helvetica, Arial, sans-serif">Winning_Entry</text></g><g class="relationship" transform="translate(-503.13004925092196 -308.6718351497297) rotate(439.5352293350235)"><path class="b-outline" fill="#A5ABB6" stroke="none" d="M 25 0.5 L 38.62618254770352 0.5 L 38.62618254770352 -0.5 L 25 -0.5 Z M 96.64962004770352 0.5 L 110.27580259540704 0.5 L 110.27580259540704 3.5 L 117.27580259540704 0 L 110.27580259540704 -3.5 L 110.27580259540704 -0.5 L 96.64962004770352 -0.5 Z"/><text text-anchor="middle" pointer-events="none" font-size="8px" fill="#000000" x="67.63790129770352" y="3" font-family="Helvetica Neue, Helvetica, Arial, sans-serif">Winning_Entry</text></g><g class="relationship" transform="translate(-585.8291465098006 -8.235581259521185) rotate(442.26273511807733)"><path class="b-outline" fill="#A5ABB6" stroke="none" d="M 25 0.5 L 38.59534097722424 0.5 L 38.59534097722424 -0.5 L 25 -0.5 Z M 96.61877847722424 0.5 L 110.21411945444848 0.5 L 110.21411945444848 3.5 L 117.21411945444848 0 L 110.21411945444848 -3.5 L 110.21411945444848 -0.5 L 96.61877847722424 -0.5 Z"/><text text-anchor="middle" pointer-events="none" font-size="8px" fill="#000000" x="67.60705972722424" y="3" font-family="Helvetica Neue, Helvetica, Arial, sans-serif">Winning_Entry</text></g><g class="relationship" transform="translate(278.6253172583875 -161.22933216739452) rotate(403.7533883686128)"><path class="b-outline" fill="#A5ABB6" stroke="none" d="M 25 0.5 L 41.73596806439335 0.5 L 41.73596806439335 -0.5 L 25 -0.5 Z M 99.75940556439335 0.5 L 116.4953736287867 0.5 L 116.4953736287867 3.5 L 123.4953736287867 0 L 116.4953736287867 -3.5 L 116.4953736287867 -0.5 L 99.75940556439335 -0.5 Z"/><text text-anchor="middle" pointer-events="none" font-size="8px" fill="#000000" x="70.74768681439335" y="3" font-family="Helvetica Neue, Helvetica, Arial, sans-serif">Winning_Entry</text></g><g class="relationship" transform="translate(243.04900040467132 -43.84183643128604) rotate(354.1262765100412)"><path class="b-outline" fill="#A5ABB6" stroke="none" d="M 25 0.5 L 39.28419546345246 0.5 L 39.28419546345246 -0.5 L 25 -0.5 Z M 97.30763296345246 0.5 L 111.59182842690493 0.5 L 111.59182842690493 3.5 L 118.59182842690493 0 L 111.59182842690493 -3.5 L 111.59182842690493 -0.5 L 97.30763296345246 -0.5 Z"/><text text-anchor="middle" pointer-events="none" font-size="8px" fill="#000000" x="68.29591421345246" y="3" font-family="Helvetica Neue, Helvetica, Arial, sans-serif">Winning_Entry</text></g><g class="relationship" transform="translate(-441.1641576188058 410.1225541460069) rotate(277.5635054265138)"><path class="b-outline" fill="#A5ABB6" stroke="none" d="M 25 0.5 L 38.951440343476094 0.5 L 38.951440343476094 -0.5 L 25 -0.5 Z M 96.9748778434761 0.5 L 110.92631818695219 0.5 L 110.92631818695219 3.5 L 117.92631818695219 0 L 110.92631818695219 -3.5 L 110.92631818695219 -0.5 L 96.9748778434761 -0.5 Z"/><text text-anchor="middle" pointer-events="none" font-size="8px" fill="#000000" x="67.9631590934761" y="3" font-family="Helvetica Neue, Helvetica, Arial, sans-serif">Winning_Entry</text></g><g class="relationship" transform="translate(-222.4331700738871 329.90829805478324) rotate(307.18433668295313)"><path class="b-outline" fill="#A5ABB6" stroke="none" d="M 25 0.5 L 40.9807864572353 0.5 L 40.9807864572353 -0.5 L 25 -0.5 Z M 99.0042239572353 0.5 L 114.9850104144706 0.5 L 114.9850104144706 3.5 L 121.9850104144706 0 L 114.9850104144706 -3.5 L 114.9850104144706 -0.5 L 99.0042239572353 -0.5 Z"/><text text-anchor="middle" pointer-events="none" font-size="8px" fill="#000000" x="69.9925052072353" y="3" font-family="Helvetica Neue, Helvetica, Arial, sans-serif">Winning_Entry</text></g><g class="relationship" transform="translate(15.519000324762157 -210.90389196806044) rotate(510.1010818200401)"><path class="b-outline" fill="#A5ABB6" stroke="none" d="M 25 0.5 L 39.7293861365919 0.5 L 39.7293861365919 -0.5 L 25 -0.5 Z M 97.7528236365919 0.5 L 112.4822097731838 0.5 L 112.4822097731838 3.5 L 119.4822097731838 0 L 112.4822097731838 -3.5 L 112.4822097731838 -0.5 L 97.7528236365919 -0.5 Z"/><text text-anchor="middle" pointer-events="none" font-size="8px" fill="#000000" x="68.7411048865919" y="3" transform="rotate(180 68.7411048865919 0)" font-family="Helvetica Neue, Helvetica, Arial, sans-serif">Winning_Entry</text></g><g class="relationship" transform="translate(-33.76874475982807 122.57910397360645) rotate(349.2820165807706)"><path class="b-outline" fill="#A5ABB6" stroke="none" d="M 25 0.5 L 37.35496870365127 0.5 L 37.35496870365127 -0.5 L 25 -0.5 Z M 95.37840620365127 0.5 L 107.73337490730253 0.5 L 107.73337490730253 3.5 L 114.73337490730253 0 L 107.73337490730253 -3.5 L 107.73337490730253 -0.5 L 95.37840620365127 -0.5 Z"/><text text-anchor="middle" pointer-events="none" font-size="8px" fill="#000000" x="66.36668745365127" y="3" font-family="Helvetica Neue, Helvetica, Arial, sans-serif">Winning_Entry</text></g></g><g class="layer nodes"><g class="node" aria-label="graph-node0" transform="translate(-59.2277993175912,612.7315304877517)"><circle class="b-outline" cx="0" cy="0" r="25" fill="#F79767" stroke="#f36924" stroke-width="2px"/><text class="caption" text-anchor="middle" pointer-events="none" x="0" y="5" font-size="10px" fill="#FFFFFF" font-family="Helvetica Neue, Helvetica, Arial, sans-serif"> 1956</text></g><g class="node" aria-label="graph-node69" transform="translate(85.11371279624511,605.0655883270163)"><circle class="b-outline" cx="0" cy="0" r="25" fill="#C990C0" stroke="#b261a5" stroke-width="2px"/><text class="caption" text-anchor="middle" pointer-events="none" x="0" y="5" font-size="10px" fill="#FFFFFF" font-family="Helvetica Neue, Helvetica, Arial, sans-serif"> Switzerl…</text></g><g class="node" aria-label="graph-node1" transform="translate(-113.37700926585795,361.9593430047434)"><circle class="b-outline" cx="0" cy="0" r="25" fill="#F79767" stroke="#f36924" stroke-width="2px"/><text class="caption" text-anchor="middle" pointer-events="none" x="0" y="5" font-size="10px" fill="#FFFFFF" font-family="Helvetica Neue, Helvetica, Arial, sans-serif"> 1957</text></g><g class="node" aria-label="graph-node70" transform="translate(-133.5981725566965,212.80604998642733)"><circle class="b-outline" cx="0" cy="0" r="25" fill="#C990C0" stroke="#b261a5" stroke-width="2px"/><text class="caption" text-anchor="middle" pointer-events="none" x="0" y="5" font-size="10px" fill="#FFFFFF" font-family="Helvetica Neue, Helvetica, Arial, sans-serif"> Netherla…</text></g><g class="node" aria-label="graph-node2" transform="translate(107.20102487390679,245.25854550061274)"><circle class="b-outline" cx="0" cy="0" r="25" fill="#F79767" stroke="#f36924" stroke-width="2px"/><text class="caption" text-anchor="middle" pointer-events="none" x="0" y="5" font-size="10px" fill="#FFFFFF" font-family="Helvetica Neue, Helvetica, Arial, sans-serif"> 1958</text></g><g class="node" aria-label="graph-node71" transform="translate(103.52690778080792,96.59218694934746)"><circle class="b-outline" cx="0" cy="0" r="25" fill="#C990C0" stroke="#b261a5" stroke-width="2px"/><text class="caption" text-anchor="middle" pointer-events="none" x="0" y="5" font-size="10px" fill="#FFFFFF" font-family="Helvetica Neue, Helvetica, Arial, sans-serif"> France</text></g><g class="node" aria-label="graph-node3" transform="translate(-24.451322326711075,316.7093201845092)"><circle class="b-outline" cx="0" cy="0" r="25" fill="#F79767" stroke="#f36924" stroke-width="2px"/><text class="caption" text-anchor="middle" pointer-events="none" x="0" y="5" font-size="10px" fill="#FFFFFF" font-family="Helvetica Neue, Helvetica, Arial, sans-serif"> 1959</text></g><g class="node" aria-label="graph-node4" transform="translate(202.22486265211745,215.13752388003402)"><circle class="b-outline" cx="0" cy="0" r="25" fill="#F79767" stroke="#f36924" stroke-width="2px"/><text class="caption" text-anchor="middle" pointer-events="none" x="0" y="5" font-size="10px" fill="#FFFFFF" font-family="Helvetica Neue, Helvetica, Arial, sans-serif"> 1960</text></g><g class="node" aria-label="graph-node5" transform="translate(483.50330338188786,49.71328229565061)"><circle class="b-outline" cx="0" cy="0" r="25" fill="#F79767" stroke="#f36924" stroke-width="2px"/><text class="caption" text-anchor="middle" pointer-events="none" x="0" y="5" font-size="10px" fill="#FFFFFF" font-family="Helvetica Neue, Helvetica, Arial, sans-serif"> 1961</text></g><g class="node" aria-label="graph-node72" transform="translate(385.8869508198659,-58.53649914153975)"><circle class="b-outline" cx="0" cy="0" r="25" fill="#C990C0" stroke="#b261a5" stroke-width="2px"/><text class="caption" text-anchor="middle" pointer-events="none" x="0" y="5" font-size="10px" fill="#FFFFFF" font-family="Helvetica Neue, Helvetica, Arial, sans-serif"> Luxemb…</text></g><g class="node" aria-label="graph-node6" transform="translate(251.08723084127476,128.20287575059433)"><circle class="b-outline" cx="0" cy="0" r="25" fill="#F79767" stroke="#f36924" stroke-width="2px"/><text class="caption" text-anchor="middle" pointer-events="none" x="0" y="5" font-size="10px" fill="#FFFFFF" font-family="Helvetica Neue, Helvetica, Arial, sans-serif"> 1962</text></g><g class="node" aria-label="graph-node7" transform="translate(566.3424834089637,-296.474359221163)"><circle class="b-outline" cx="0" cy="0" r="25" fill="#F79767" stroke="#f36924" stroke-width="2px"/><text class="caption" text-anchor="middle" pointer-events="none" x="0" y="5" font-size="10px" fill="#FFFFFF" font-family="Helvetica Neue, Helvetica, Arial, sans-serif"> 1963</text></g><g class="node" aria-label="graph-node73" transform="translate(567.7486734489487,-152.73152393714273)"><circle class="b-outline" cx="0" cy="0" r="25" fill="#C990C0" stroke="#b261a5" stroke-width="2px"/><text class="caption" text-anchor="middle" pointer-events="none" x="0" y="5" font-size="10px" fill="#FFFFFF" font-family="Helvetica Neue, Helvetica, Arial, sans-serif"> Denmark</text></g><g class="node" aria-label="graph-node8" transform="translate(324.62951593506097,-468.4486009538717)"><circle class="b-outline" cx="0" cy="0" r="25" fill="#F79767" stroke="#f36924" stroke-width="2px"/><text class="caption" text-anchor="middle" pointer-events="none" x="0" y="5" font-size="10px" fill="#FFFFFF" font-family="Helvetica Neue, Helvetica, Arial, sans-serif"> 1964</text></g><g class="node" aria-label="graph-node74" transform="translate(212.0657289827281,-555.0870453837313)"><circle class="b-outline" cx="0" cy="0" r="25" fill="#C990C0" stroke="#b261a5" stroke-width="2px"/><text class="caption" text-anchor="middle" pointer-events="none" x="0" y="5" font-size="10px" fill="#FFFFFF" font-family="Helvetica Neue, Helvetica, Arial, sans-serif"> Italy</text></g><g class="node" aria-label="graph-node9" transform="translate(380.15853204553486,-204.7827829295407)"><circle class="b-outline" cx="0" cy="0" r="25" fill="#F79767" stroke="#f36924" stroke-width="2px"/><text class="caption" text-anchor="middle" pointer-events="none" x="0" y="5" font-size="10px" fill="#FFFFFF" font-family="Helvetica Neue, Helvetica, Arial, sans-serif"> 1965</text></g><g class="node" aria-label="graph-node10" transform="translate(11.160834280347903,-513.7868857256037)"><circle class="b-outline" cx="0" cy="0" r="25" fill="#F79767" stroke="#f36924" stroke-width="2px"/><text class="caption" text-anchor="middle" pointer-events="none" x="0" y="5" font-size="10px" fill="#FFFFFF" font-family="Helvetica Neue, Helvetica, Arial, sans-serif"> 1966</text></g><g class="node" aria-label="graph-node75" transform="translate(-120.2928853664638,-568.4570108106515)"><circle class="b-outline" cx="0" cy="0" r="25" fill="#C990C0" stroke="#b261a5" stroke-width="2px"/><text class="caption" text-anchor="middle" pointer-events="none" x="0" y="5" font-size="10px" fill="#FFFFFF" font-family="Helvetica Neue, Helvetica, Arial, sans-serif"> Austria</text></g><g class="node" aria-label="graph-node11" transform="translate(-144.14101332148525,-283.56393916685636)"><circle class="b-outline" cx="0" cy="0" r="25" fill="#F79767" stroke="#f36924" stroke-width="2px"/><text class="caption" text-anchor="middle" pointer-events="none" x="0" y="5" font-size="10px" fill="#FFFFFF" font-family="Helvetica Neue, Helvetica, Arial, sans-serif"> 1967</text></g><g class="node" aria-label="graph-node76" transform="translate(-109.73351746638268,-138.8836467038208)"><circle class="b-outline" cx="0" cy="0" r="25" fill="#C990C0" stroke="#b261a5" stroke-width="2px"/><text class="caption" text-anchor="middle" pointer-events="none" x="0" y="0" font-size="10px" fill="#FFFFFF" font-family="Helvetica Neue, Helvetica, Arial, sans-serif"> United</text><text class="caption" text-anchor="middle" pointer-events="none" x="0" y="10" font-size="10px" fill="#FFFFFF" font-family="Helvetica Neue, Helvetica, Arial, sans-serif"> Kingd…</text></g><g class="node" aria-label="graph-node12" transform="translate(-297.484466404755,-161.05255558446592)"><circle class="b-outline" cx="0" cy="0" r="25" fill="#F79767" stroke="#f36924" stroke-width="2px"/><text class="caption" text-anchor="middle" pointer-events="none" x="0" y="5" font-size="10px" fill="#FFFFFF" font-family="Helvetica Neue, Helvetica, Arial, sans-serif"> 1968</text></g><g class="node" aria-label="graph-node77" transform="translate(-225.78201729568906,-32.248016488514125)"><circle class="b-outline" cx="0" cy="0" r="25" fill="#C990C0" stroke="#b261a5" stroke-width="2px"/><text class="caption" text-anchor="middle" pointer-events="none" x="0" y="5" font-size="10px" fill="#FFFFFF" font-family="Helvetica Neue, Helvetica, Arial, sans-serif"> Spain</text></g><g class="node" aria-label="graph-node13" transform="translate(-80.56292399379667,30.0888355062152)"><circle class="b-outline" cx="0" cy="0" r="25" fill="#F79767" stroke="#f36924" stroke-width="2px"/><text class="caption" text-anchor="middle" pointer-events="none" x="0" y="5" font-size="10px" fill="#FFFFFF" font-family="Helvetica Neue, Helvetica, Arial, sans-serif"> 1969</text></g><g class="node" aria-label="graph-node14" transform="translate(-503.13004925092196,-308.6718351497297)"><circle class="b-outline" cx="0" cy="0" r="25" fill="#F79767" stroke="#f36924" stroke-width="2px"/><text class="caption" text-anchor="middle" pointer-events="none" x="0" y="5" font-size="10px" fill="#FFFFFF" font-family="Helvetica Neue, Helvetica, Arial, sans-serif"> 1970</text></g><g class="node" aria-label="graph-node78" transform="translate(-477.28836444386064,-168.76253835176945)"><circle class="b-outline" cx="0" cy="0" r="25" fill="#C990C0" stroke="#b261a5" stroke-width="2px"/><text class="caption" text-anchor="middle" pointer-events="none" x="0" y="5" font-size="10px" fill="#FFFFFF" font-family="Helvetica Neue, Helvetica, Arial, sans-serif"> Ireland</text></g><g class="node" aria-label="graph-node15" transform="translate(-585.8291465098006,-8.235581259521185)"><circle class="b-outline" cx="0" cy="0" r="25" fill="#F79767" stroke="#f36924" stroke-width="2px"/><text class="caption" text-anchor="middle" pointer-events="none" x="0" y="5" font-size="10px" fill="#FFFFFF" font-family="Helvetica Neue, Helvetica, Arial, sans-serif"> 1971</text></g><g class="node" aria-label="graph-node79" transform="translate(-566.6827618442579,132.68379897770245)"><circle class="b-outline" cx="0" cy="0" r="25" fill="#C990C0" stroke="#b261a5" stroke-width="2px"/><text class="caption" text-anchor="middle" pointer-events="none" x="0" y="5" font-size="10px" fill="#FFFFFF" font-family="Helvetica Neue, Helvetica, Arial, sans-serif"> Monaco</text></g><g class="node" aria-label="graph-node16" transform="translate(278.6253172583875,-161.22933216739452)"><circle class="b-outline" cx="0" cy="0" r="25" fill="#F79767" stroke="#f36924" stroke-width="2px"/><text class="caption" text-anchor="middle" pointer-events="none" x="0" y="5" font-size="10px" fill="#FFFFFF" font-family="Helvetica Neue, Helvetica, Arial, sans-serif"> 1972</text></g><g class="node" aria-label="graph-node17" transform="translate(243.04900040467132,-43.84183643128604)"><circle class="b-outline" cx="0" cy="0" r="25" fill="#F79767" stroke="#f36924" stroke-width="2px"/><text class="caption" text-anchor="middle" pointer-events="none" x="0" y="5" font-size="10px" fill="#FFFFFF" font-family="Helvetica Neue, Helvetica, Arial, sans-serif"> 1973</text></g><g class="node" aria-label="graph-node18" transform="translate(-441.1641576188058,410.1225541460069)"><circle class="b-outline" cx="0" cy="0" r="25" fill="#F79767" stroke="#f36924" stroke-width="2px"/><text class="caption" text-anchor="middle" pointer-events="none" x="0" y="5" font-size="10px" fill="#FFFFFF" font-family="Helvetica Neue, Helvetica, Arial, sans-serif"> 1974</text></g><g class="node" aria-label="graph-node80" transform="translate(-422.3514798053755,268.43975496429266)"><circle class="b-outline" cx="0" cy="0" r="25" fill="#C990C0" stroke="#b261a5" stroke-width="2px"/><text class="caption" text-anchor="middle" pointer-events="none" x="0" y="5" font-size="10px" fill="#FFFFFF" font-family="Helvetica Neue, Helvetica, Arial, sans-serif"> Sweden</text></g><g class="node" aria-label="graph-node19" transform="translate(-222.4331700738871,329.90829805478324)"><circle class="b-outline" cx="0" cy="0" r="25" fill="#F79767" stroke="#f36924" stroke-width="2px"/><text class="caption" text-anchor="middle" pointer-events="none" x="0" y="5" font-size="10px" fill="#FFFFFF" font-family="Helvetica Neue, Helvetica, Arial, sans-serif"> 1975</text></g><g class="node" aria-label="graph-node20" transform="translate(15.519000324762157,-210.90389196806044)"><circle class="b-outline" cx="0" cy="0" r="25" fill="#F79767" stroke="#f36924" stroke-width="2px"/><text class="caption" text-anchor="middle" pointer-events="none" x="0" y="5" font-size="10px" fill="#FFFFFF" font-family="Helvetica Neue, Helvetica, Arial, sans-serif"> 1976</text></g><g class="node" aria-label="graph-node21" transform="translate(-33.76874475982807,122.57910397360645)"><circle class="b-outline" cx="0" cy="0" r="25" fill="#F79767" stroke="#f36924" stroke-width="2px"/><text class="caption" text-anchor="middle" pointer-events="none" x="0" y="5" font-size="10px" fill="#FFFFFF" font-family="Helvetica Neue, Helvetica, Arial, sans-serif"> 1977</text></g></g></svg>